<?xml version="1.0" encoding="UTF-8"?>
<svg xmlns="http://www.w3.org/2000/svg" xmlns:xlink="http://www.w3.org/1999/xlink" width="96px" height="96px" viewBox="0 0 96 96" version="1.1">
<defs>
<linearGradient id="linear0" gradientUnits="userSpaceOnUse" x1="-7708.7969" y1="-803.36011" x2="-7633.1528" y2="-714.90741" gradientTransform="matrix(0.0516975,-0.110869,0.110869,0.0516975,566.235823,-804.846598)">
<stop offset="0" style="stop-color:rgb(96.470588%,60%,13.72549%);stop-opacity:1;"/>
<stop offset="0.3123" style="stop-color:rgb(96.862745%,60.392157%,13.72549%);stop-opacity:1;"/>
<stop offset="0.8383" style="stop-color:rgb(91.372549%,47.058824%,14.901961%);stop-opacity:1;"/>
</linearGradient>
<filter id="alpha" filterUnits="objectBoundingBox" x="0%" y="0%" width="100%" height="100%">
  <feColorMatrix type="matrix" in="SourceGraphic" values="0 0 0 0 1 0 0 0 0 1 0 0 0 0 1 0 0 0 1 0"/>
</filter>
<mask id="mask0">
  <g filter="url(#alpha)">
<rect x="0" y="0" width="96" height="96" style="fill:rgb(0%,0%,0%);fill-opacity:0.34902;stroke:none;"/>
  </g>
</mask>
<clipPath id="clip1">
  <rect x="0" y="0" width="96" height="96"/>
</clipPath>
<g id="surface5" clip-path="url(#clip1)">
<path style=" stroke:none;fill-rule:nonzero;fill:rgb(74.509804%,12.54902%,18.039216%);fill-opacity:1;" d="M 75.515625 32.734375 C 75.273438 32.785156 75.027344 32.820312 74.78125 32.855469 C 74.90625 32.84375 75.039062 32.820312 75.160156 32.796875 C 75.285156 32.785156 75.40625 32.757812 75.515625 32.734375 Z M 75.515625 32.734375 "/>
</g>
<mask id="mask1">
  <g filter="url(#alpha)">
<rect x="0" y="0" width="96" height="96" style="fill:rgb(0%,0%,0%);fill-opacity:0.34902;stroke:none;"/>
  </g>
</mask>
<clipPath id="clip2">
  <rect x="0" y="0" width="96" height="96"/>
</clipPath>
<g id="surface8" clip-path="url(#clip2)">
<path style=" stroke:none;fill-rule:nonzero;fill:rgb(74.509804%,12.54902%,18.039216%);fill-opacity:1;" d="M 76.152344 29.640625 C 76.140625 29.640625 76.140625 29.640625 76.152344 29.640625 C 76.1875 29.640625 76.226562 29.628906 76.261719 29.628906 C 76.421875 29.601562 76.582031 29.578125 76.726562 29.542969 C 76.542969 29.578125 76.347656 29.601562 76.152344 29.640625 Z M 76.152344 29.640625 "/>
</g>
<linearGradient id="linear1" gradientUnits="userSpaceOnUse" x1="-8268.6387" y1="-813.12323" x2="-7728.9585" y2="-813.12323" gradientTransform="matrix(0.0516975,-0.110869,0.110869,0.0516975,566.235823,-804.846598)">
<stop offset="0.3233" style="stop-color:rgb(61.960784%,12.54902%,39.215686%);stop-opacity:1;"/>
<stop offset="0.6302" style="stop-color:rgb(78.823529%,12.54902%,21.568627%);stop-opacity:1;"/>
<stop offset="0.7514" style="stop-color:rgb(80.392157%,13.72549%,20.784314%);stop-opacity:1;"/>
<stop offset="1" style="stop-color:rgb(91.372549%,47.058824%,14.901961%);stop-opacity:1;"/>
</linearGradient>
<linearGradient id="linear2" gradientUnits="userSpaceOnUse" x1="-8203.4922" y1="-758.99402" x2="-7881.895" y2="-758.99402" gradientTransform="matrix(0.0516975,-0.110869,0.110869,0.0516975,566.235823,-804.846598)">
<stop offset="0" style="stop-color:rgb(15.686275%,14.901961%,38.431373%);stop-opacity:1;"/>
<stop offset="0.0954839" style="stop-color:rgb(40%,18.039216%,55.294118%);stop-opacity:1;"/>
<stop offset="0.7882" style="stop-color:rgb(62.352941%,12.54902%,39.215686%);stop-opacity:1;"/>
<stop offset="0.9487" style="stop-color:rgb(80.392157%,12.54902%,19.607843%);stop-opacity:1;"/>
</linearGradient>
<linearGradient id="linear3" gradientUnits="userSpaceOnUse" x1="-8238.3281" y1="-818.15222" x2="-7698.647" y2="-818.15222" gradientTransform="matrix(0.0516975,-0.110869,0.110869,0.0516975,566.235823,-804.846598)">
<stop offset="0.3233" style="stop-color:rgb(61.960784%,12.54902%,39.215686%);stop-opacity:1;"/>
<stop offset="0.6302" style="stop-color:rgb(78.823529%,12.54902%,21.568627%);stop-opacity:1;"/>
<stop offset="0.7514" style="stop-color:rgb(80.392157%,13.72549%,20.784314%);stop-opacity:1;"/>
<stop offset="1" style="stop-color:rgb(91.372549%,47.058824%,14.901961%);stop-opacity:1;"/>
</linearGradient>
<linearGradient id="linear4" gradientUnits="userSpaceOnUse" x1="-8198.9678" y1="-810.85059" x2="-7915.3501" y2="-810.85059" gradientTransform="matrix(0.0516975,-0.110869,0.110869,0.0516975,566.235823,-804.846598)">
<stop offset="0" style="stop-color:rgb(15.686275%,14.901961%,38.431373%);stop-opacity:1;"/>
<stop offset="0.0954839" style="stop-color:rgb(40%,18.039216%,55.294118%);stop-opacity:1;"/>
<stop offset="0.7882" style="stop-color:rgb(62.352941%,12.54902%,39.215686%);stop-opacity:1;"/>
<stop offset="0.9487" style="stop-color:rgb(80.392157%,12.54902%,19.607843%);stop-opacity:1;"/>
</linearGradient>
<linearGradient id="linear5" gradientUnits="userSpaceOnUse" x1="-8238.3281" y1="-762.29712" x2="-7698.647" y2="-762.29712" gradientTransform="matrix(0.0516975,-0.110869,0.110869,0.0516975,566.235823,-804.846598)">
<stop offset="0.3233" style="stop-color:rgb(61.960784%,12.54902%,39.215686%);stop-opacity:1;"/>
<stop offset="0.6302" style="stop-color:rgb(78.823529%,12.54902%,21.568627%);stop-opacity:1;"/>
<stop offset="0.7514" style="stop-color:rgb(80.392157%,13.72549%,20.784314%);stop-opacity:1;"/>
<stop offset="1" style="stop-color:rgb(91.372549%,47.058824%,14.901961%);stop-opacity:1;"/>
</linearGradient>
<linearGradient id="linear6" gradientUnits="userSpaceOnUse" x1="-8271.8057" y1="-765.07068" x2="-7732.125" y2="-765.07068" gradientTransform="matrix(0.0516975,-0.110869,0.110869,0.0516975,566.235823,-804.846598)">
<stop offset="0.3233" style="stop-color:rgb(61.960784%,12.54902%,39.215686%);stop-opacity:1;"/>
<stop offset="0.6302" style="stop-color:rgb(78.823529%,12.54902%,21.568627%);stop-opacity:1;"/>
<stop offset="0.7514" style="stop-color:rgb(80.392157%,13.72549%,20.784314%);stop-opacity:1;"/>
<stop offset="1" style="stop-color:rgb(91.372549%,47.058824%,14.901961%);stop-opacity:1;"/>
</linearGradient>
<mask id="mask2">
  <g filter="url(#alpha)">
<rect x="0" y="0" width="96" height="96" style="fill:rgb(0%,0%,0%);fill-opacity:0.34902;stroke:none;"/>
  </g>
</mask>
<clipPath id="clip3">
  <rect x="0" y="0" width="96" height="96"/>
</clipPath>
<g id="surface11" clip-path="url(#clip3)">
<path style=" stroke:none;fill-rule:nonzero;fill:rgb(74.509804%,12.54902%,18.039216%);fill-opacity:1;" d="M 75.160156 32.808594 C 75.039062 32.832031 74.917969 32.84375 74.78125 32.871094 C 74.90625 32.84375 75.027344 32.820312 75.160156 32.808594 Z M 75.160156 32.808594 "/>
</g>
<linearGradient id="linear7" gradientUnits="userSpaceOnUse" x1="-8238.3281" y1="-745.68481" x2="-7698.647" y2="-745.68481" gradientTransform="matrix(0.0516975,-0.110869,0.110869,0.0516975,566.235823,-804.846598)">
<stop offset="0.3233" style="stop-color:rgb(61.960784%,12.54902%,39.215686%);stop-opacity:1;"/>
<stop offset="0.6302" style="stop-color:rgb(78.823529%,12.54902%,21.568627%);stop-opacity:1;"/>
<stop offset="0.7514" style="stop-color:rgb(80.392157%,13.72549%,20.784314%);stop-opacity:1;"/>
<stop offset="1" style="stop-color:rgb(91.372549%,47.058824%,14.901961%);stop-opacity:1;"/>
</linearGradient>
<mask id="mask3">
  <g filter="url(#alpha)">
<rect x="0" y="0" width="96" height="96" style="fill:rgb(0%,0%,0%);fill-opacity:0.34902;stroke:none;"/>
  </g>
</mask>
<clipPath id="clip4">
  <rect x="0" y="0" width="96" height="96"/>
</clipPath>
<g id="surface14" clip-path="url(#clip4)">
<path style=" stroke:none;fill-rule:nonzero;fill:rgb(74.509804%,12.54902%,18.039216%);fill-opacity:1;" d="M 76.140625 29.640625 C 76.175781 29.640625 76.214844 29.628906 76.261719 29.628906 C 76.226562 29.628906 76.1875 29.640625 76.140625 29.640625 Z M 76.140625 29.640625 "/>
</g>
<linearGradient id="linear8" gradientUnits="userSpaceOnUse" x1="-8238.3281" y1="-747.58557" x2="-7698.647" y2="-747.58557" gradientTransform="matrix(0.0516975,-0.110869,0.110869,0.0516975,566.235823,-804.846598)">
<stop offset="0.3233" style="stop-color:rgb(61.960784%,12.54902%,39.215686%);stop-opacity:1;"/>
<stop offset="0.6302" style="stop-color:rgb(78.823529%,12.54902%,21.568627%);stop-opacity:1;"/>
<stop offset="0.7514" style="stop-color:rgb(80.392157%,13.72549%,20.784314%);stop-opacity:1;"/>
<stop offset="1" style="stop-color:rgb(91.372549%,47.058824%,14.901961%);stop-opacity:1;"/>
</linearGradient>
</defs>
<g id="surface1">
<path style=" stroke:none;fill-rule:nonzero;fill:rgb(69.019608%,68.627451%,69.019608%);fill-opacity:1;" d="M 0.351562 66.203125 L 0.351562 66.757812 L 0.195312 66.757812 L 0.195312 66.203125 L 0 66.203125 L 0 66.070312 L 0.542969 66.070312 L 0.542969 66.203125 Z M 0.351562 66.203125 "/>
<path style=" stroke:none;fill-rule:nonzero;fill:rgb(69.019608%,68.627451%,69.019608%);fill-opacity:1;" d="M 1.265625 66.324219 L 1.082031 66.699219 L 0.992188 66.699219 L 0.804688 66.324219 L 0.804688 66.757812 L 0.65625 66.757812 L 0.65625 66.070312 L 0.863281 66.070312 L 1.042969 66.445312 L 1.222656 66.070312 L 1.429688 66.070312 L 1.429688 66.757812 L 1.277344 66.757812 L 1.277344 66.324219 Z M 1.265625 66.324219 "/>
<path style="fill-rule:nonzero;fill:rgb(82.352941%,12.941176%,15.686275%);fill-opacity:1;stroke-width:3;stroke-linecap:butt;stroke-linejoin:round;stroke:rgb(82.352941%,12.941176%,15.686275%);stroke-opacity:1;stroke-miterlimit:4;" d="M -611.925962 207.090386 C -615.315163 207.090386 -618.309303 206.903252 -620.866798 206.528984 C -623.424294 206.217095 -625.607521 205.822035 -627.374896 205.364596 L -627.374896 185.112562 C -625.44118 185.528415 -623.403501 185.88189 -621.261859 186.214572 C -619.161802 186.526462 -616.874611 186.67201 -614.358701 186.67201 C -611.946754 186.67201 -609.721942 186.422498 -607.684263 185.88189 C -605.584206 185.362074 -603.796038 184.447197 -602.278175 183.137261 C -600.697934 181.889702 -599.491961 180.184706 -598.660255 178.043063 C -597.766172 175.901421 -597.329526 173.198377 -597.329526 169.954725 L -597.329526 58.610121 L -573.002134 58.610121 L -573.002134 169.185397 C -573.002134 175.776665 -573.958595 181.453057 -575.892311 186.214572 C -577.784442 190.976087 -580.4459 194.885104 -583.897479 197.983208 C -587.307472 201.122897 -591.38283 203.410088 -596.144346 204.886366 C -600.905861 206.341851 -606.1664 207.090386 -611.925962 207.090386 " transform="matrix(0.187867,0,0,0.187867,121.593463,54.118003)"/>
<path style="fill-rule:nonzero;fill:rgb(0%,0%,0%);fill-opacity:1;stroke-width:3;stroke-linecap:butt;stroke-linejoin:round;stroke:rgb(0%,0%,0%);stroke-opacity:1;stroke-miterlimit:4;" d="M -559.965146 58.610121 L -559.965146 173.323133 L -538.216042 173.323133 L -538.216042 119.948418 C -538.216042 118.492933 -538.257627 116.850314 -538.299212 115.020562 C -538.299212 113.190809 -538.36159 111.298679 -538.465553 109.302585 C -538.507139 107.306491 -538.569516 105.310397 -538.67348 103.272718 C -538.735858 101.235039 -538.819028 99.238945 -538.922991 97.30523 C -539.130918 92.793226 -539.401222 88.135674 -539.713112 83.332573 L -538.985369 83.332573 L -513.805478 173.323133 L -491.453387 173.323133 L -464.298195 83.478122 L -463.674416 83.478122 C -463.840757 88.239637 -464.007098 92.814019 -464.215024 97.201266 C -464.25661 99.093397 -464.360573 101.027113 -464.464536 103.023206 C -464.506121 104.998508 -464.568499 106.953016 -464.610085 108.886732 C -464.672462 110.820448 -464.714048 112.670993 -464.776426 114.396782 C -464.776426 116.122572 -464.776426 117.661227 -464.776426 119.012749 L -464.776426 173.323133 L -442.091652 173.323133 L -442.091652 58.610121 L -475.214333 58.610121 L -501.579404 146.334282 L -502.057635 146.334282 L -526.842466 58.610121 Z M -332.18174 66.927178 L -339.084897 85.43263 L -352.246641 93.458591 L -352.246641 103.584608 L -340.810687 103.584608 L -340.810687 145.856052 C -340.810687 151.511651 -340.12453 156.210788 -338.773008 159.995049 C -337.359108 163.696139 -335.425392 166.669487 -333.013446 168.915093 C -330.622292 171.119113 -327.752907 172.699354 -324.467669 173.572645 C -321.161639 174.466729 -317.62689 174.903374 -313.801043 174.903374 C -309.871234 174.903374 -306.253314 174.529107 -302.968076 173.738986 C -299.62046 173.011244 -296.834246 172.054782 -294.588641 170.890394 L -294.588641 153.091891 C -296.792661 153.861219 -298.934303 154.526584 -301.075946 155.0464 C -303.176002 155.566216 -305.421608 155.83652 -307.771177 155.83652 C -310.495013 155.83652 -312.699033 155.025607 -314.362445 153.403781 C -316.046649 151.781955 -316.857562 149.266045 -316.857562 145.856052 L -316.857562 103.584608 L -295.52431 103.584608 L -295.52431 85.619764 L -316.857562 85.619764 L -316.857562 66.927178 Z M -393.624001 83.956353 C -399.570696 83.956353 -405.018369 84.933607 -409.925433 86.867323 C -414.790911 88.801039 -418.991025 91.670423 -422.484189 95.558648 C -425.935768 99.363701 -428.659604 104.166802 -430.59332 109.926364 C -432.527036 115.685926 -433.483498 122.381157 -433.483498 130.074435 C -433.483498 137.66375 -432.423073 144.296603 -430.343808 149.952202 C -428.181374 155.545423 -425.208026 160.202975 -421.402972 163.924859 C -417.577126 167.584364 -413.023537 170.3082 -407.742205 172.137953 C -402.460874 173.967705 -396.680519 174.903374 -390.401141 174.903374 C -387.157488 174.903374 -384.184141 174.778618 -381.460304 174.529107 C -378.736468 174.300387 -376.199766 173.946913 -373.829404 173.427096 C -371.479835 172.90728 -369.275815 172.241916 -367.175758 171.514173 C -365.034116 170.724053 -362.892474 169.809177 -360.81321 168.707166 L -360.81321 150.180921 C -363.1004 151.324517 -365.366798 152.343356 -367.550026 153.23744 C -369.754046 154.069146 -371.999652 154.796888 -374.245257 155.35829 C -376.490863 155.940484 -378.798846 156.397922 -381.210793 156.709811 C -383.560361 156.959323 -386.076271 157.084079 -388.737729 157.084079 C -391.939796 157.084079 -394.788389 156.605848 -397.304298 155.607801 C -399.75783 154.609754 -401.899473 153.195855 -403.68764 151.366102 C -405.413429 149.473971 -406.744158 147.186781 -407.742205 144.525322 C -408.677874 141.801486 -409.19769 138.76576 -409.301654 135.418145 L -355.802182 135.418145 L -355.802182 123.795057 C -355.802182 117.411716 -356.675474 111.776909 -358.463641 106.869845 C -360.18943 101.900404 -362.70534 97.70029 -365.990578 94.290296 C -369.23423 90.901095 -373.226418 88.3436 -377.925555 86.617811 C -382.583107 84.829644 -387.80206 83.956353 -393.624001 83.956353 Z M -249.530983 83.956353 C -255.477679 83.956353 -260.925351 84.933607 -265.832415 86.867323 C -270.697894 88.801039 -274.898008 91.670423 -278.391172 95.558648 C -281.842751 99.363701 -284.545794 104.166802 -286.500303 109.926364 C -288.434018 115.685926 -289.39048 122.381157 -289.39048 130.074435 C -289.39048 137.66375 -288.330055 144.296603 -286.250791 149.952202 C -284.088356 155.545423 -281.115008 160.202975 -277.309954 163.924859 C -273.484108 167.584364 -268.930519 170.3082 -263.649188 172.137953 C -258.367856 173.967705 -252.587502 174.903374 -246.308123 174.903374 C -243.064471 174.903374 -240.091123 174.778618 -237.367287 174.529107 C -234.64345 174.300387 -232.085955 173.946913 -229.736387 173.427096 C -227.386818 172.90728 -225.182798 172.241916 -223.082741 171.514173 C -220.941099 170.724053 -218.799456 169.809177 -216.720192 168.707166 L -216.720192 150.180921 C -219.007383 151.324517 -221.252988 152.343356 -223.457008 153.23744 C -225.661029 154.069146 -227.906634 154.796888 -230.152239 155.35829 C -232.397845 155.940484 -234.705828 156.397922 -237.117775 156.709811 C -239.467344 156.959323 -241.983253 157.084079 -244.644712 157.084079 C -247.846779 157.084079 -250.695371 156.605848 -253.211281 155.607801 C -255.664813 154.609754 -257.76487 153.195855 -259.553037 151.366102 C -261.278826 149.473971 -262.651141 147.186781 -263.649188 144.525322 C -264.584857 141.801486 -265.104673 138.76576 -265.208636 135.418145 L -211.709165 135.418145 L -211.709165 123.795057 C -211.709165 117.411716 -212.582456 111.776909 -214.370623 106.869845 C -216.096413 101.900404 -218.59153 97.70029 -221.89756 94.290296 C -225.141212 90.901095 -229.1334 88.3436 -233.832537 86.617811 C -238.490089 84.829644 -243.709043 83.956353 -249.530983 83.956353 Z M -159.561216 83.956353 C -162.492978 83.956353 -165.092059 84.309828 -167.400042 85.058363 C -169.645648 85.723727 -171.683327 86.700982 -173.513079 88.010918 C -175.301247 89.279269 -176.90228 90.838718 -178.357765 92.66847 C -179.834043 94.498223 -181.206357 96.515109 -182.453916 98.760715 L -183.639097 98.760715 L -187.173846 85.619764 L -205.305031 85.619764 L -205.305031 173.323133 L -181.372698 173.323133 L -181.372698 128.681328 C -181.372698 124.543592 -180.852882 121.071221 -179.875628 118.243421 C -178.815203 115.353244 -177.380511 113.066053 -175.550758 111.340264 C -173.67942 109.552096 -171.433815 108.262953 -168.87632 107.493625 C -166.256447 106.703504 -163.428647 106.308444 -160.330544 106.308444 C -159.810727 106.308444 -159.145363 106.350029 -158.376035 106.391615 C -157.585915 106.391615 -156.816587 106.453993 -156.026466 106.557956 C -155.194761 106.599541 -154.383848 106.703504 -153.656105 106.807468 C -152.90757 106.911431 -152.346169 107.015394 -151.930316 107.119357 L -151.930316 84.64251 C -152.242205 84.538547 -152.699643 84.476169 -153.344215 84.434583 C -153.905617 84.33062 -154.570981 84.226657 -155.298724 84.185072 C -155.984881 84.081109 -156.712624 84.018731 -157.481951 84.018731 C -158.230487 83.977145 -158.916644 83.956353 -159.561216 83.956353 Z M -393.457659 100.985527 C -390.94175 100.985527 -388.758522 101.442966 -386.866391 102.399427 C -384.974261 103.335096 -383.39402 104.62424 -382.146461 106.308444 C -380.898903 107.93027 -379.963234 109.863986 -379.339455 112.109592 C -378.715675 114.355197 -378.3622 116.829522 -378.299822 119.49098 L -408.844215 119.49098 C -408.40757 113.107638 -406.827329 108.429294 -404.061907 105.455946 C -401.234108 102.482598 -397.699359 100.985527 -393.457659 100.985527 Z M -249.364642 100.985527 C -246.848732 100.985527 -244.665504 101.442966 -242.773374 102.399427 C -240.881243 103.335096 -239.301002 104.62424 -238.053444 106.308444 C -236.805885 107.93027 -235.870216 109.863986 -235.246437 112.109592 C -234.622658 114.355197 -234.269183 116.829522 -234.206805 119.49098 L -264.751198 119.49098 C -264.314552 113.107638 -262.734311 108.429294 -259.96889 105.455946 C -257.14109 102.482598 -253.606341 100.985527 -249.364642 100.985527 Z M -249.364642 100.985527 " transform="matrix(0.187867,0,0,0.187867,121.593463,54.118003)"/>
<path style=" stroke:none;fill-rule:nonzero;fill:rgb(30.196078%,30.196078%,30.196078%);fill-opacity:1;" d="M 91.570312 67.546875 L 90.910156 67.546875 L 90.910156 64.96875 L 90.125 64.96875 L 90.125 64.417969 L 92.351562 64.417969 L 92.351562 64.96875 L 91.570312 64.96875 L 91.570312 67.546875 "/>
<path style=" stroke:none;fill-rule:nonzero;fill:rgb(30.196078%,30.196078%,30.196078%);fill-opacity:1;" d="M 94.089844 67.546875 L 93.402344 65.09375 L 93.386719 65.09375 C 93.394531 65.222656 93.402344 65.351562 93.40625 65.472656 C 93.410156 65.527344 93.410156 65.578125 93.414062 65.636719 C 93.414062 65.691406 93.417969 65.746094 93.417969 65.800781 C 93.421875 65.855469 93.421875 65.90625 93.421875 65.957031 C 93.425781 66.007812 93.425781 66.050781 93.425781 66.089844 L 93.425781 67.546875 L 92.832031 67.546875 L 92.832031 64.417969 L 93.734375 64.417969 L 94.410156 66.808594 L 94.425781 66.808594 L 95.140625 64.417969 L 96.042969 64.417969 L 96.042969 67.546875 L 95.425781 67.546875 L 95.425781 66.066406 C 95.425781 66.027344 95.425781 65.984375 95.425781 65.9375 C 95.429688 65.890625 95.429688 65.84375 95.429688 65.789062 C 95.433594 65.738281 95.433594 65.683594 95.433594 65.628906 C 95.4375 65.574219 95.441406 65.523438 95.441406 65.472656 C 95.449219 65.351562 95.453125 65.226562 95.457031 65.097656 L 95.441406 65.097656 L 94.699219 67.546875 L 94.089844 67.546875 "/>
<path style=" stroke:none;fill-rule:nonzero;fill:rgb(82.352941%,12.941176%,15.686275%);fill-opacity:1;" d="M 9.3125 61.8125 L 12.542969 54.097656 L 13.164062 54.097656 L 16.394531 61.8125 L 15.582031 61.8125 L 14.578125 59.402344 L 11.109375 59.402344 L 10.121094 61.8125 Z M 12.855469 54.988281 L 11.273438 58.800781 L 14.402344 58.800781 Z M 12.855469 54.988281 "/>
<path style=" stroke:none;fill-rule:nonzero;fill:rgb(82.352941%,12.941176%,15.686275%);fill-opacity:1;" d="M 17.21875 61.8125 L 17.21875 54.097656 L 20.414062 54.097656 C 21.734375 54.097656 22.691406 55.324219 22.691406 56.519531 C 22.691406 57.777344 21.800781 58.964844 20.480469 58.964844 L 17.972656 58.964844 L 17.972656 61.8125 Z M 17.972656 58.289062 L 20.441406 58.289062 C 21.351562 58.289062 21.9375 57.449219 21.9375 56.519531 C 21.9375 55.550781 21.226562 54.773438 20.375 54.773438 L 17.972656 54.773438 Z M 17.972656 58.289062 "/>
<path style=" stroke:none;fill-rule:nonzero;fill:rgb(82.352941%,12.941176%,15.686275%);fill-opacity:1;" d="M 22.273438 61.8125 L 25.5 54.097656 L 26.125 54.097656 L 29.351562 61.8125 L 28.527344 61.8125 L 27.523438 59.402344 L 24.0625 59.402344 L 23.070312 61.8125 Z M 25.816406 54.988281 L 24.230469 58.800781 L 27.359375 58.800781 Z M 25.816406 54.988281 "/>
<path style=" stroke:none;fill-rule:nonzero;fill:rgb(82.352941%,12.941176%,15.686275%);fill-opacity:1;" d="M 32.992188 54.050781 C 34.363281 54.050781 35.363281 54.746094 35.839844 55.734375 L 35.230469 56.101562 C 34.742188 55.082031 33.785156 54.734375 32.953125 54.734375 C 31.105469 54.734375 30.097656 56.382812 30.097656 57.933594 C 30.097656 59.636719 31.347656 61.183594 32.984375 61.183594 C 33.855469 61.183594 34.878906 60.75 35.363281 59.75 L 35.992188 60.078125 C 35.496094 61.230469 34.125 61.871094 32.941406 61.871094 C 30.824219 61.871094 29.332031 59.847656 29.332031 57.894531 C 29.332031 56.042969 30.667969 54.050781 32.992188 54.050781 Z M 32.992188 54.050781 "/>
<path style=" stroke:none;fill-rule:nonzero;fill:rgb(82.352941%,12.941176%,15.686275%);fill-opacity:1;" d="M 43.136719 54.097656 L 43.136719 61.8125 L 42.375 61.8125 L 42.375 58.203125 L 37.804688 58.203125 L 37.804688 61.8125 L 37.058594 61.8125 L 37.058594 54.097656 L 37.804688 54.097656 L 37.804688 57.53125 L 42.375 57.53125 L 42.375 54.097656 Z M 43.136719 54.097656 "/>
<path style=" stroke:none;fill-rule:nonzero;fill:rgb(82.352941%,12.941176%,15.686275%);fill-opacity:1;" d="M 50.058594 61.136719 L 50.058594 61.8125 L 44.878906 61.8125 L 44.878906 54.097656 L 49.960938 54.097656 L 49.960938 54.773438 L 45.625 54.773438 L 45.625 57.554688 L 49.402344 57.554688 L 49.402344 58.199219 L 45.625 58.199219 L 45.625 61.136719 Z M 50.058594 61.136719 "/>
<path style=" stroke:none;fill-rule:nonzero;fill:url(#linear0);" d="M 81.816406 3.058594 C 80.789062 3.667969 79.078125 5.382812 77.046875 7.863281 L 78.917969 11.398438 C 80.226562 9.515625 81.570312 7.828125 82.917969 6.382812 C 83.015625 6.273438 83.078125 6.214844 83.078125 6.214844 C 83.027344 6.273438 82.964844 6.324219 82.917969 6.382812 C 82.476562 6.863281 81.15625 8.402344 79.160156 11.472656 C 81.082031 11.375 84.03125 10.984375 86.441406 10.566406 C 87.164062 6.554688 85.742188 4.71875 85.742188 4.71875 C 85.742188 4.71875 83.933594 1.796875 81.816406 3.058594 Z M 81.816406 3.058594 "/>
<path style=" stroke:none;fill-rule:nonzero;fill:rgb(74.509804%,12.54902%,18.039216%);fill-opacity:1;" d="M 75.515625 32.734375 C 75.273438 32.785156 75.027344 32.820312 74.78125 32.855469 C 74.90625 32.84375 75.039062 32.820312 75.160156 32.796875 C 75.285156 32.785156 75.40625 32.757812 75.515625 32.734375 Z M 75.515625 32.734375 "/>
<use xlink:href="#surface5" mask="url(#mask0)"/>
<path style=" stroke:none;fill-rule:nonzero;fill:rgb(74.509804%,12.54902%,18.039216%);fill-opacity:1;" d="M 76.152344 29.640625 C 76.140625 29.640625 76.140625 29.640625 76.152344 29.640625 C 76.1875 29.640625 76.226562 29.628906 76.261719 29.628906 C 76.421875 29.601562 76.582031 29.578125 76.726562 29.542969 C 76.542969 29.578125 76.347656 29.601562 76.152344 29.640625 Z M 76.152344 29.640625 "/>
<use xlink:href="#surface8" mask="url(#mask1)"/>
<path style=" stroke:none;fill-rule:nonzero;fill:url(#linear1);" d="M 73.386719 20.527344 C 73.964844 19.460938 74.539062 18.421875 75.113281 17.40625 C 75.710938 16.355469 76.324219 15.339844 76.949219 14.347656 C 76.984375 14.285156 77.019531 14.226562 77.058594 14.175781 C 77.667969 13.210938 78.28125 12.28125 78.90625 11.386719 L 77.035156 7.863281 C 76.898438 8.035156 76.753906 8.207031 76.605469 8.390625 C 76.066406 9.0625 75.503906 9.785156 74.929688 10.554688 C 74.28125 11.425781 73.621094 12.34375 72.933594 13.308594 C 72.3125 14.203125 71.675781 15.144531 71.039062 16.109375 C 70.5 16.941406 69.960938 17.785156 69.425781 18.652344 C 69.398438 18.691406 69.386719 18.714844 69.363281 18.753906 L 71.796875 23.558594 C 72.335938 22.542969 72.863281 21.527344 73.386719 20.527344 Z M 73.386719 20.527344 "/>
<path style=" stroke:none;fill-rule:nonzero;fill:url(#linear2);" d="M 62.292969 47.648438 C 61.972656 48.527344 61.644531 49.433594 61.324219 50.363281 C 61.324219 50.375 61.3125 50.386719 61.3125 50.398438 C 61.265625 50.535156 61.214844 50.65625 61.179688 50.789062 C 60.960938 51.414062 60.777344 51.976562 60.335938 53.25 C 61.058594 53.578125 61.632812 54.4375 62.171875 55.414062 C 62.109375 54.398438 61.691406 53.445312 60.898438 52.710938 C 64.433594 52.871094 67.492188 51.976562 69.058594 49.382812 C 69.191406 49.152344 69.328125 48.90625 69.449219 48.648438 C 68.726562 49.554688 67.847656 49.945312 66.171875 49.847656 C 66.171875 49.847656 66.15625 49.847656 66.15625 49.847656 C 66.15625 49.847656 66.171875 49.847656 66.171875 49.847656 C 68.628906 48.746094 69.863281 47.683594 70.953125 45.933594 C 71.210938 45.519531 71.46875 45.066406 71.722656 44.5625 C 69.570312 46.777344 67.074219 47.402344 64.445312 46.925781 L 62.476562 47.144531 C 62.414062 47.316406 62.355469 47.476562 62.292969 47.648438 Z M 62.292969 47.648438 "/>
<path style=" stroke:none;fill-rule:nonzero;fill:url(#linear3);" d="M 63.210938 43.230469 C 63.636719 42.128906 64.078125 41.015625 64.519531 39.890625 C 64.945312 38.816406 65.386719 37.738281 65.839844 36.648438 C 66.292969 35.558594 66.757812 34.472656 67.222656 33.382812 C 67.699219 32.269531 68.1875 31.167969 68.691406 30.066406 C 69.179688 28.980469 69.695312 27.890625 70.195312 26.8125 C 70.378906 26.421875 70.5625 26.042969 70.757812 25.652344 C 71.074219 24.992188 71.40625 24.332031 71.738281 23.667969 C 71.75 23.632812 71.773438 23.597656 71.785156 23.558594 L 69.375 18.765625 C 69.339844 18.824219 69.300781 18.898438 69.253906 18.960938 C 68.691406 19.890625 68.117188 20.832031 67.566406 21.796875 C 67.003906 22.777344 66.453125 23.769531 65.914062 24.78125 C 65.460938 25.640625 65.019531 26.496094 64.582031 27.363281 C 64.496094 27.535156 64.410156 27.71875 64.324219 27.890625 C 63.796875 28.980469 63.308594 30.042969 62.878906 31.058594 C 62.390625 32.207031 61.960938 33.308594 61.582031 34.347656 C 61.339844 35.035156 61.105469 35.695312 60.898438 36.332031 C 60.726562 36.871094 60.566406 37.421875 60.410156 37.957031 C 60.042969 39.230469 59.734375 40.503906 59.480469 41.773438 L 61.925781 46.605469 C 62.242188 45.738281 62.585938 44.871094 62.917969 43.976562 C 63.015625 43.730469 63.113281 43.488281 63.210938 43.230469 Z M 63.210938 43.230469 "/>
<path style=" stroke:none;fill-rule:nonzero;fill:url(#linear4);" d="M 59.441406 41.945312 C 59.136719 43.488281 58.917969 45.027344 58.804688 46.570312 C 58.804688 46.621094 58.792969 46.679688 58.792969 46.730469 C 58.035156 45.507812 55.980469 44.308594 55.992188 44.320312 C 57.460938 46.449219 58.574219 48.550781 58.734375 50.621094 C 57.949219 50.777344 56.875 50.546875 55.636719 50.09375 C 56.933594 51.28125 57.902344 51.609375 58.28125 51.695312 C 57.09375 51.769531 55.859375 52.589844 54.609375 53.53125 C 56.433594 52.785156 57.914062 52.492188 58.964844 52.734375 C 57.289062 57.46875 55.613281 62.707031 53.9375 68.261719 C 54.449219 68.113281 54.757812 67.757812 54.929688 67.292969 C 55.222656 66.289062 57.214844 59.683594 60.324219 51.011719 C 60.410156 50.765625 60.507812 50.523438 60.59375 50.265625 C 60.617188 50.191406 60.640625 50.128906 60.664062 50.058594 C 60.996094 49.152344 61.339844 48.222656 61.691406 47.269531 C 61.777344 47.046875 61.851562 46.839844 61.9375 46.621094 C 61.9375 46.621094 61.9375 46.605469 61.9375 46.605469 L 59.492188 41.773438 C 59.464844 41.835938 59.453125 41.886719 59.441406 41.945312 Z M 59.441406 41.945312 "/>
<path style=" stroke:none;fill-rule:nonzero;fill:url(#linear5);" d="M 72.1875 23.976562 C 72.117188 24.121094 72.054688 24.257812 71.980469 24.402344 C 71.773438 24.84375 71.554688 25.285156 71.34375 25.738281 C 71.113281 26.226562 70.878906 26.726562 70.636719 27.242188 C 70.511719 27.5 70.390625 27.753906 70.269531 28.023438 C 69.902344 28.820312 69.535156 29.640625 69.15625 30.484375 C 68.691406 31.523438 68.226562 32.601562 67.75 33.726562 C 67.296875 34.789062 66.832031 35.902344 66.367188 37.039062 C 65.925781 38.128906 65.472656 39.242188 65.019531 40.40625 C 64.617188 41.433594 64.214844 42.496094 63.796875 43.585938 C 63.773438 43.632812 63.761719 43.695312 63.734375 43.746094 C 63.332031 44.820312 62.917969 45.933594 62.5 47.070312 C 62.488281 47.097656 62.476562 47.121094 62.476562 47.144531 L 64.445312 46.925781 C 64.410156 46.914062 64.371094 46.914062 64.324219 46.902344 C 66.683594 46.605469 69.816406 44.84375 71.835938 42.667969 C 72.765625 41.664062 73.609375 40.492188 74.390625 39.109375 C 74.976562 38.082031 75.515625 36.941406 76.042969 35.671875 C 76.496094 34.570312 76.9375 33.371094 77.351562 32.074219 C 76.8125 32.355469 76.1875 32.5625 75.503906 32.710938 C 75.382812 32.734375 75.257812 32.757812 75.136719 32.785156 C 75.015625 32.808594 74.894531 32.820312 74.757812 32.84375 C 76.960938 32 78.34375 30.375 79.34375 28.367188 C 78.769531 28.757812 77.828125 29.273438 76.703125 29.53125 C 76.554688 29.566406 76.398438 29.589844 76.238281 29.613281 C 76.203125 29.613281 76.164062 29.628906 76.117188 29.628906 C 76.875 29.308594 77.523438 28.953125 78.085938 28.527344 C 78.207031 28.441406 78.316406 28.34375 78.429688 28.246094 C 78.597656 28.097656 78.757812 27.9375 78.917969 27.78125 C 79.015625 27.671875 79.113281 27.570312 79.210938 27.460938 C 79.429688 27.207031 79.640625 26.925781 79.824219 26.617188 C 79.882812 26.519531 79.945312 26.433594 79.992188 26.335938 C 80.066406 26.191406 80.140625 26.054688 80.203125 25.921875 C 80.507812 25.308594 80.753906 24.757812 80.949219 24.269531 C 81.046875 24.023438 81.132812 23.804688 81.203125 23.597656 C 81.230469 23.511719 81.265625 23.4375 81.289062 23.351562 C 81.363281 23.121094 81.4375 22.910156 81.488281 22.726562 C 81.558594 22.457031 81.609375 22.238281 81.632812 22.078125 C 81.558594 22.140625 81.472656 22.203125 81.375 22.25 C 80.714844 22.640625 79.578125 23.007812 78.660156 23.179688 L 80.472656 22.984375 L 78.660156 23.179688 C 78.648438 23.179688 78.636719 23.179688 78.625 23.191406 C 78.539062 23.203125 78.441406 23.21875 78.34375 23.242188 C 78.355469 23.230469 78.378906 23.230469 78.390625 23.21875 L 72.203125 23.890625 C 72.214844 23.9375 72.203125 23.964844 72.1875 23.976562 Z M 72.1875 23.976562 "/>
<path style=" stroke:none;fill-rule:nonzero;fill:url(#linear6);" d="M 79.160156 11.472656 C 78.613281 12.316406 78.011719 13.285156 77.363281 14.359375 C 77.328125 14.421875 77.289062 14.46875 77.265625 14.53125 C 76.703125 15.472656 76.117188 16.5 75.492188 17.640625 C 74.953125 18.617188 74.390625 19.65625 73.804688 20.796875 C 73.289062 21.773438 72.777344 22.8125 72.226562 23.914062 L 78.414062 23.242188 C 80.214844 22.410156 81.023438 21.664062 81.804688 20.574219 C 82.011719 20.28125 82.21875 19.964844 82.429688 19.632812 C 83.066406 18.640625 83.6875 17.554688 84.238281 16.464844 C 84.777344 15.414062 85.253906 14.371094 85.609375 13.441406 C 85.839844 12.84375 86.023438 12.292969 86.160156 11.804688 C 86.269531 11.375 86.355469 10.972656 86.429688 10.582031 C 84.03125 10.984375 81.082031 11.375 79.160156 11.472656 Z M 79.160156 11.472656 "/>
<path style=" stroke:none;fill-rule:nonzero;fill:rgb(74.509804%,12.54902%,18.039216%);fill-opacity:1;" d="M 75.160156 32.808594 C 75.039062 32.832031 74.917969 32.84375 74.78125 32.871094 C 74.90625 32.84375 75.027344 32.820312 75.160156 32.808594 Z M 75.160156 32.808594 "/>
<use xlink:href="#surface11" mask="url(#mask2)"/>
<path style=" stroke:none;fill-rule:nonzero;fill:url(#linear7);" d="M 75.160156 32.808594 C 75.039062 32.832031 74.917969 32.84375 74.78125 32.871094 C 74.90625 32.84375 75.027344 32.820312 75.160156 32.808594 Z M 75.160156 32.808594 "/>
<path style=" stroke:none;fill-rule:nonzero;fill:rgb(74.509804%,12.54902%,18.039216%);fill-opacity:1;" d="M 76.140625 29.640625 C 76.175781 29.640625 76.214844 29.628906 76.261719 29.628906 C 76.226562 29.628906 76.1875 29.640625 76.140625 29.640625 Z M 76.140625 29.640625 "/>
<use xlink:href="#surface14" mask="url(#mask3)"/>
<path style=" stroke:none;fill-rule:nonzero;fill:url(#linear8);" d="M 76.140625 29.640625 C 76.175781 29.640625 76.214844 29.628906 76.261719 29.628906 C 76.226562 29.628906 76.1875 29.640625 76.140625 29.640625 Z M 76.140625 29.640625 "/>
</g>
</svg>
