<?xml version="1.0" encoding="UTF-8"?>
<svg xmlns="http://www.w3.org/2000/svg" xmlns:xlink="http://www.w3.org/1999/xlink" width="75px" height="75px" viewBox="0 0 75 75" version="1.1">
<defs>
<linearGradient id="linear0" gradientUnits="userSpaceOnUse" x1="-7708.7969" y1="-803.36011" x2="-7633.1528" y2="-714.90741" gradientTransform="matrix(0.0403886,-0.0866167,0.0866167,0.0403886,442.371736,-628.786405)">
<stop offset="0" style="stop-color:rgb(96.470588%,60%,13.72549%);stop-opacity:1;"/>
<stop offset="0.3123" style="stop-color:rgb(96.862745%,60.392157%,13.72549%);stop-opacity:1;"/>
<stop offset="0.8383" style="stop-color:rgb(91.372549%,47.058824%,14.901961%);stop-opacity:1;"/>
</linearGradient>
<filter id="alpha" filterUnits="objectBoundingBox" x="0%" y="0%" width="100%" height="100%">
  <feColorMatrix type="matrix" in="SourceGraphic" values="0 0 0 0 1 0 0 0 0 1 0 0 0 0 1 0 0 0 1 0"/>
</filter>
<mask id="mask0">
  <g filter="url(#alpha)">
<rect x="0" y="0" width="75" height="75" style="fill:rgb(0%,0%,0%);fill-opacity:0.34902;stroke:none;"/>
  </g>
</mask>
<clipPath id="clip1">
  <rect x="0" y="0" width="75" height="75"/>
</clipPath>
<g id="surface5" clip-path="url(#clip1)">
<path style=" stroke:none;fill-rule:nonzero;fill:rgb(74.509804%,12.54902%,18.039216%);fill-opacity:1;" d="M 58.996094 25.574219 C 58.804688 25.613281 58.613281 25.640625 58.425781 25.667969 C 58.519531 25.660156 58.625 25.640625 58.71875 25.621094 C 58.816406 25.613281 58.910156 25.59375 58.996094 25.574219 Z M 58.996094 25.574219 "/>
</g>
<mask id="mask1">
  <g filter="url(#alpha)">
<rect x="0" y="0" width="75" height="75" style="fill:rgb(0%,0%,0%);fill-opacity:0.34902;stroke:none;"/>
  </g>
</mask>
<clipPath id="clip2">
  <rect x="0" y="0" width="75" height="75"/>
</clipPath>
<g id="surface8" clip-path="url(#clip2)">
<path style=" stroke:none;fill-rule:nonzero;fill:rgb(74.509804%,12.54902%,18.039216%);fill-opacity:1;" d="M 59.496094 23.15625 C 59.484375 23.15625 59.484375 23.15625 59.496094 23.15625 C 59.523438 23.15625 59.550781 23.144531 59.582031 23.144531 C 59.703125 23.128906 59.828125 23.109375 59.945312 23.078125 C 59.800781 23.109375 59.648438 23.128906 59.496094 23.15625 Z M 59.496094 23.15625 "/>
</g>
<linearGradient id="linear1" gradientUnits="userSpaceOnUse" x1="-8268.6387" y1="-813.12323" x2="-7728.9585" y2="-813.12323" gradientTransform="matrix(0.0403886,-0.0866167,0.0866167,0.0403886,442.371736,-628.786405)">
<stop offset="0.3233" style="stop-color:rgb(61.960784%,12.54902%,39.215686%);stop-opacity:1;"/>
<stop offset="0.6302" style="stop-color:rgb(78.823529%,12.54902%,21.568627%);stop-opacity:1;"/>
<stop offset="0.7514" style="stop-color:rgb(80.392157%,13.72549%,20.784314%);stop-opacity:1;"/>
<stop offset="1" style="stop-color:rgb(91.372549%,47.058824%,14.901961%);stop-opacity:1;"/>
</linearGradient>
<linearGradient id="linear2" gradientUnits="userSpaceOnUse" x1="-8203.4922" y1="-758.99402" x2="-7881.895" y2="-758.99402" gradientTransform="matrix(0.0403886,-0.0866167,0.0866167,0.0403886,442.371736,-628.786405)">
<stop offset="0" style="stop-color:rgb(15.686275%,14.901961%,38.431373%);stop-opacity:1;"/>
<stop offset="0.0954839" style="stop-color:rgb(40%,18.039216%,55.294118%);stop-opacity:1;"/>
<stop offset="0.7882" style="stop-color:rgb(62.352941%,12.54902%,39.215686%);stop-opacity:1;"/>
<stop offset="0.9487" style="stop-color:rgb(80.392157%,12.54902%,19.607843%);stop-opacity:1;"/>
</linearGradient>
<linearGradient id="linear3" gradientUnits="userSpaceOnUse" x1="-8238.3281" y1="-818.15222" x2="-7698.647" y2="-818.15222" gradientTransform="matrix(0.0403886,-0.0866167,0.0866167,0.0403886,442.371736,-628.786405)">
<stop offset="0.3233" style="stop-color:rgb(61.960784%,12.54902%,39.215686%);stop-opacity:1;"/>
<stop offset="0.6302" style="stop-color:rgb(78.823529%,12.54902%,21.568627%);stop-opacity:1;"/>
<stop offset="0.7514" style="stop-color:rgb(80.392157%,13.72549%,20.784314%);stop-opacity:1;"/>
<stop offset="1" style="stop-color:rgb(91.372549%,47.058824%,14.901961%);stop-opacity:1;"/>
</linearGradient>
<linearGradient id="linear4" gradientUnits="userSpaceOnUse" x1="-8198.9678" y1="-810.85059" x2="-7915.3501" y2="-810.85059" gradientTransform="matrix(0.0403886,-0.0866167,0.0866167,0.0403886,442.371736,-628.786405)">
<stop offset="0" style="stop-color:rgb(15.686275%,14.901961%,38.431373%);stop-opacity:1;"/>
<stop offset="0.0954839" style="stop-color:rgb(40%,18.039216%,55.294118%);stop-opacity:1;"/>
<stop offset="0.7882" style="stop-color:rgb(62.352941%,12.54902%,39.215686%);stop-opacity:1;"/>
<stop offset="0.9487" style="stop-color:rgb(80.392157%,12.54902%,19.607843%);stop-opacity:1;"/>
</linearGradient>
<linearGradient id="linear5" gradientUnits="userSpaceOnUse" x1="-8238.3281" y1="-762.29712" x2="-7698.647" y2="-762.29712" gradientTransform="matrix(0.0403886,-0.0866167,0.0866167,0.0403886,442.371736,-628.786405)">
<stop offset="0.3233" style="stop-color:rgb(61.960784%,12.54902%,39.215686%);stop-opacity:1;"/>
<stop offset="0.6302" style="stop-color:rgb(78.823529%,12.54902%,21.568627%);stop-opacity:1;"/>
<stop offset="0.7514" style="stop-color:rgb(80.392157%,13.72549%,20.784314%);stop-opacity:1;"/>
<stop offset="1" style="stop-color:rgb(91.372549%,47.058824%,14.901961%);stop-opacity:1;"/>
</linearGradient>
<linearGradient id="linear6" gradientUnits="userSpaceOnUse" x1="-8271.8057" y1="-765.07068" x2="-7732.125" y2="-765.07068" gradientTransform="matrix(0.0403886,-0.0866167,0.0866167,0.0403886,442.371736,-628.786405)">
<stop offset="0.3233" style="stop-color:rgb(61.960784%,12.54902%,39.215686%);stop-opacity:1;"/>
<stop offset="0.6302" style="stop-color:rgb(78.823529%,12.54902%,21.568627%);stop-opacity:1;"/>
<stop offset="0.7514" style="stop-color:rgb(80.392157%,13.72549%,20.784314%);stop-opacity:1;"/>
<stop offset="1" style="stop-color:rgb(91.372549%,47.058824%,14.901961%);stop-opacity:1;"/>
</linearGradient>
<mask id="mask2">
  <g filter="url(#alpha)">
<rect x="0" y="0" width="75" height="75" style="fill:rgb(0%,0%,0%);fill-opacity:0.34902;stroke:none;"/>
  </g>
</mask>
<clipPath id="clip3">
  <rect x="0" y="0" width="75" height="75"/>
</clipPath>
<g id="surface11" clip-path="url(#clip3)">
<path style=" stroke:none;fill-rule:nonzero;fill:rgb(74.509804%,12.54902%,18.039216%);fill-opacity:1;" d="M 58.71875 25.632812 C 58.625 25.652344 58.527344 25.660156 58.425781 25.679688 C 58.519531 25.660156 58.613281 25.640625 58.71875 25.632812 Z M 58.71875 25.632812 "/>
</g>
<linearGradient id="linear7" gradientUnits="userSpaceOnUse" x1="-8238.3281" y1="-745.68481" x2="-7698.647" y2="-745.68481" gradientTransform="matrix(0.0403886,-0.0866167,0.0866167,0.0403886,442.371736,-628.786405)">
<stop offset="0.3233" style="stop-color:rgb(61.960784%,12.54902%,39.215686%);stop-opacity:1;"/>
<stop offset="0.6302" style="stop-color:rgb(78.823529%,12.54902%,21.568627%);stop-opacity:1;"/>
<stop offset="0.7514" style="stop-color:rgb(80.392157%,13.72549%,20.784314%);stop-opacity:1;"/>
<stop offset="1" style="stop-color:rgb(91.372549%,47.058824%,14.901961%);stop-opacity:1;"/>
</linearGradient>
<mask id="mask3">
  <g filter="url(#alpha)">
<rect x="0" y="0" width="75" height="75" style="fill:rgb(0%,0%,0%);fill-opacity:0.34902;stroke:none;"/>
  </g>
</mask>
<clipPath id="clip4">
  <rect x="0" y="0" width="75" height="75"/>
</clipPath>
<g id="surface14" clip-path="url(#clip4)">
<path style=" stroke:none;fill-rule:nonzero;fill:rgb(74.509804%,12.54902%,18.039216%);fill-opacity:1;" d="M 59.484375 23.15625 C 59.511719 23.15625 59.542969 23.144531 59.582031 23.144531 C 59.550781 23.144531 59.523438 23.15625 59.484375 23.15625 Z M 59.484375 23.15625 "/>
</g>
<linearGradient id="linear8" gradientUnits="userSpaceOnUse" x1="-8238.3281" y1="-747.58557" x2="-7698.647" y2="-747.58557" gradientTransform="matrix(0.0403886,-0.0866167,0.0866167,0.0403886,442.371736,-628.786405)">
<stop offset="0.3233" style="stop-color:rgb(61.960784%,12.54902%,39.215686%);stop-opacity:1;"/>
<stop offset="0.6302" style="stop-color:rgb(78.823529%,12.54902%,21.568627%);stop-opacity:1;"/>
<stop offset="0.7514" style="stop-color:rgb(80.392157%,13.72549%,20.784314%);stop-opacity:1;"/>
<stop offset="1" style="stop-color:rgb(91.372549%,47.058824%,14.901961%);stop-opacity:1;"/>
</linearGradient>
</defs>
<g id="surface1">
<path style=" stroke:none;fill-rule:nonzero;fill:rgb(69.019608%,68.627451%,69.019608%);fill-opacity:1;" d="M 0.273438 51.722656 L 0.273438 52.152344 L 0.152344 52.152344 L 0.152344 51.722656 L 0 51.722656 L 0 51.617188 L 0.421875 51.617188 L 0.421875 51.722656 Z M 0.273438 51.722656 "/>
<path style=" stroke:none;fill-rule:nonzero;fill:rgb(69.019608%,68.627451%,69.019608%);fill-opacity:1;" d="M 0.988281 51.816406 L 0.847656 52.109375 L 0.773438 52.109375 L 0.628906 51.816406 L 0.628906 52.152344 L 0.511719 52.152344 L 0.511719 51.617188 L 0.675781 51.617188 L 0.8125 51.910156 L 0.953125 51.617188 L 1.117188 51.617188 L 1.117188 52.152344 L 1 52.152344 L 1 51.816406 Z M 0.988281 51.816406 "/>
<path style="fill-rule:nonzero;fill:rgb(82.352941%,12.941176%,15.686275%);fill-opacity:1;stroke-width:3;stroke-linecap:butt;stroke-linejoin:round;stroke:rgb(82.352941%,12.941176%,15.686275%);stroke-opacity:1;stroke-miterlimit:4;" d="M -611.914318 207.072088 C -615.320985 207.072088 -618.301818 206.885786 -620.856818 206.539797 C -623.438432 206.220422 -625.594214 205.821203 -627.377391 205.34214 L -627.377391 185.115057 C -625.434526 185.514276 -623.411818 185.88688 -621.256037 186.206255 C -619.180099 186.52563 -616.86463 186.685317 -614.36286 186.685317 C -611.940932 186.685317 -609.731922 186.419172 -607.682599 185.88688 C -605.580047 185.381203 -603.79687 184.449692 -602.279839 183.145578 C -600.709578 181.894692 -599.485307 180.191359 -598.660255 178.035578 C -597.781974 175.906411 -597.329526 173.191724 -597.329526 169.971359 L -597.329526 58.589328 L -573.003797 58.589328 L -573.003797 169.172922 C -573.003797 175.773338 -573.961922 181.442245 -575.904787 186.206255 C -577.794422 190.970265 -580.45588 194.882609 -583.915776 197.969901 C -587.295828 201.110422 -591.394474 203.42589 -596.158485 204.889692 C -600.89588 206.353495 -606.165568 207.072088 -611.914318 207.072088 " transform="matrix(0.146771,0,0,0.146771,94.994893,42.27969)"/>
<path style="fill-rule:nonzero;fill:rgb(0%,0%,0%);fill-opacity:1;stroke-width:3;stroke-linecap:butt;stroke-linejoin:round;stroke:rgb(0%,0%,0%);stroke-opacity:1;stroke-miterlimit:4;" d="M -559.962651 58.615942 L -559.962651 173.324797 L -538.218537 173.324797 L -538.218537 119.962557 C -538.218537 118.498755 -538.245151 116.848651 -538.29838 115.012245 C -538.29838 113.175838 -538.35161 111.286203 -538.458068 109.290109 C -538.511297 107.32063 -538.564526 105.297922 -538.670985 103.275213 C -538.724214 101.22589 -538.830672 99.229797 -538.93713 97.313547 C -539.150047 92.789067 -539.389578 88.15813 -539.708953 83.34089 L -538.99036 83.34089 L -513.812964 173.324797 L -491.456714 173.324797 L -464.309839 83.500578 L -463.671089 83.500578 C -463.830776 88.237974 -463.990464 92.815682 -464.20338 97.207088 C -464.25661 99.096724 -464.363068 101.039588 -464.469526 103.009067 C -464.522755 105.005161 -464.575985 106.948026 -464.629214 108.89089 C -464.655828 110.833755 -464.709057 112.670161 -464.762287 114.400109 C -464.762287 116.130057 -464.762287 117.647088 -464.762287 119.031047 L -464.762287 173.324797 L -442.086662 173.324797 L -442.086662 58.615942 L -475.221818 58.615942 L -501.59687 146.337609 L -502.049318 146.337609 L -526.827495 58.615942 Z M -332.168432 66.919692 L -339.088224 85.416828 L -352.235828 93.454432 L -352.235828 103.594588 L -340.791557 103.594588 L -340.791557 145.858547 C -340.791557 151.500838 -340.126193 156.21162 -338.768849 159.99089 C -337.358276 163.690317 -335.442026 166.671151 -333.020099 168.93339 C -330.624787 171.115786 -327.750412 172.686047 -324.450203 173.590942 C -321.17661 174.469224 -317.610255 174.895057 -313.80437 174.895057 C -309.892026 174.895057 -306.245828 174.522453 -302.972235 173.75063 C -299.618797 173.005422 -296.824266 172.047297 -294.588641 170.90287 L -294.588641 153.071099 C -296.771037 153.869536 -298.926818 154.534901 -301.082599 155.040578 C -303.185151 155.57287 -305.420776 155.839015 -307.76286 155.839015 C -310.504162 155.839015 -312.686557 155.013963 -314.363276 153.390474 C -316.039995 151.766984 -316.865047 149.265213 -316.865047 145.858547 L -316.865047 103.594588 L -295.520151 103.594588 L -295.520151 85.60313 L -316.865047 85.60313 L -316.865047 66.919692 Z M -393.621505 83.953026 C -399.583172 83.953026 -405.012547 84.937765 -409.936245 86.854015 C -414.806714 88.79688 -418.985203 91.671255 -422.498328 95.556984 C -425.93161 99.36287 -428.646297 104.180109 -430.589162 109.928859 C -432.532026 115.677609 -433.490151 122.384484 -433.490151 130.076099 C -433.490151 137.661255 -432.425568 144.314901 -430.323016 149.957192 C -428.193849 155.546255 -425.213016 160.203807 -421.40713 163.929849 C -417.57463 167.576047 -413.023537 170.317349 -407.753849 172.153755 C -402.457547 173.963547 -396.682182 174.895057 -390.401141 174.895057 C -387.154162 174.895057 -384.173328 174.788599 -381.458641 174.522453 C -378.743953 174.309536 -376.188953 173.936932 -373.84687 173.431255 C -371.478172 172.898963 -369.269162 172.260213 -367.16661 171.515005 C -365.037443 170.743182 -362.908276 169.811672 -360.805724 168.693859 L -360.805724 150.170109 C -363.094578 151.314536 -365.356818 152.352505 -367.565828 153.230786 C -369.748224 154.082453 -371.983849 154.774432 -374.246089 155.359953 C -376.481714 155.945474 -378.797182 156.397922 -381.21911 156.717297 C -383.561193 156.956828 -386.062964 157.089901 -388.751037 157.089901 C -391.944787 157.089901 -394.792547 156.610838 -397.294318 155.626099 C -399.769474 154.614745 -401.898641 153.204172 -403.681818 151.367765 C -405.411766 149.47813 -406.742495 147.189276 -407.753849 144.527817 C -408.68536 141.786515 -409.191037 138.779067 -409.297495 135.42563 L -355.802182 135.42563 L -355.802182 123.795057 C -355.802182 117.407557 -356.680464 111.79188 -358.463641 106.868182 C -360.193589 101.891255 -362.69536 97.712765 -365.995568 94.306099 C -369.242547 90.899432 -373.20812 88.344432 -377.918901 86.614484 C -382.576453 84.831307 -387.819526 83.953026 -393.621505 83.953026 Z M -249.530151 83.953026 C -255.491818 83.953026 -260.921193 84.937765 -265.844891 86.854015 C -270.688745 88.79688 -274.893849 91.671255 -278.406974 95.556984 C -281.840255 99.36287 -284.554943 104.180109 -286.497807 109.928859 C -288.414057 115.677609 -289.398797 122.384484 -289.398797 130.076099 C -289.398797 137.661255 -288.334214 144.314901 -286.231662 149.957192 C -284.102495 155.546255 -281.121662 160.203807 -277.315776 163.929849 C -273.483276 167.576047 -268.932182 170.317349 -263.63588 172.153755 C -258.366193 173.963547 -252.590828 174.895057 -246.309787 174.895057 C -243.062807 174.895057 -240.081974 174.788599 -237.367287 174.522453 C -234.652599 174.309536 -232.097599 173.936932 -229.728901 173.431255 C -227.386818 172.898963 -225.177807 172.260213 -223.075255 171.515005 C -220.946089 170.743182 -218.790307 169.811672 -216.71437 168.693859 L -216.71437 150.170109 C -219.003224 151.314536 -221.265464 152.352505 -223.44786 153.230786 C -225.65687 154.082453 -227.892495 154.774432 -230.154735 155.359953 C -232.39036 155.945474 -234.705828 156.397922 -237.127755 156.717297 C -239.469839 156.956828 -241.97161 157.089901 -244.659682 157.089901 C -247.826818 157.089901 -250.701193 156.610838 -253.202964 155.626099 C -255.67812 154.614745 -257.780672 153.204172 -259.563849 151.367765 C -261.267182 149.47813 -262.651141 147.189276 -263.63588 144.527817 C -264.594005 141.786515 -265.099682 138.779067 -265.206141 135.42563 L -211.710828 135.42563 L -211.710828 123.795057 C -211.710828 117.407557 -212.58911 111.79188 -214.372287 106.868182 C -216.102235 101.891255 -218.604005 97.712765 -221.904214 94.306099 C -225.151193 90.899432 -229.116766 88.344432 -233.827547 86.614484 C -238.485099 84.831307 -243.728172 83.953026 -249.530151 83.953026 Z M -159.546245 83.953026 C -162.473849 83.953026 -165.108693 84.32563 -167.397547 85.044224 C -169.659787 85.736203 -171.682495 86.720942 -173.518901 88.025057 C -175.302078 89.275942 -176.898953 90.846203 -178.362755 92.682609 C -179.826557 94.519015 -181.210516 96.515109 -182.461401 98.777349 L -183.659057 98.777349 L -187.172182 85.60313 L -205.296714 85.60313 L -205.296714 173.324797 L -181.370203 173.324797 L -181.370203 128.665526 C -181.370203 124.540265 -180.864526 121.053755 -179.853172 118.232609 C -178.815203 115.358234 -177.378016 113.06938 -175.54161 111.339432 C -173.678589 109.556255 -171.442964 108.278755 -168.861349 107.480317 C -166.25312 106.708495 -163.431974 106.309276 -160.344682 106.309276 C -159.812391 106.309276 -159.147026 106.33589 -158.375203 106.38912 C -157.576766 106.38912 -156.804943 106.442349 -156.03312 106.548807 C -155.181453 106.602036 -154.383016 106.708495 -153.637807 106.788338 C -152.919214 106.894797 -152.360307 107.001255 -151.934474 107.107713 L -151.934474 84.645005 C -152.253849 84.538547 -152.706297 84.485318 -153.345047 84.432088 C -153.903953 84.32563 -154.569318 84.219172 -155.314526 84.165942 C -155.979891 84.059484 -156.698485 84.006255 -157.496922 84.006255 C -158.215516 83.97964 -158.93411 83.953026 -159.546245 83.953026 Z M -393.461818 100.986359 C -390.960047 100.986359 -388.751037 101.465422 -386.861401 102.396932 C -384.971766 103.328442 -383.401505 104.632557 -382.15062 106.309276 C -380.899735 107.932765 -379.968224 109.87563 -379.329474 112.111255 C -378.717339 114.373495 -378.344735 116.822036 -378.291505 119.483495 L -408.845047 119.483495 C -408.419214 113.095995 -406.822339 108.438443 -404.054422 105.457609 C -401.233276 102.476776 -397.693537 100.986359 -393.461818 100.986359 Z M -249.370464 100.986359 C -246.842078 100.986359 -244.659682 101.465422 -242.770047 102.396932 C -240.880412 103.328442 -239.310151 104.632557 -238.059266 106.309276 C -236.80838 107.932765 -235.87687 109.87563 -235.23812 112.111255 C -234.625985 114.373495 -234.25338 116.822036 -234.200151 119.483495 L -264.753693 119.483495 C -264.32786 113.095995 -262.730985 108.438443 -259.963068 105.457609 C -257.141922 102.476776 -253.602182 100.986359 -249.370464 100.986359 Z M -249.370464 100.986359 " transform="matrix(0.146771,0,0,0.146771,94.994893,42.27969)"/>
<path style=" stroke:none;fill-rule:nonzero;fill:rgb(30.196078%,30.196078%,30.196078%);fill-opacity:1;" d="M 71.539062 52.769531 L 71.023438 52.769531 L 71.023438 50.757812 L 70.410156 50.757812 L 70.410156 50.328125 L 72.148438 50.328125 L 72.148438 50.757812 L 71.539062 50.757812 L 71.539062 52.769531 "/>
<path style=" stroke:none;fill-rule:nonzero;fill:rgb(30.196078%,30.196078%,30.196078%);fill-opacity:1;" d="M 73.507812 52.769531 L 72.972656 50.851562 L 72.957031 50.851562 C 72.964844 50.957031 72.96875 51.054688 72.972656 51.152344 C 72.976562 51.191406 72.976562 51.234375 72.980469 51.277344 C 72.980469 51.320312 72.984375 51.363281 72.984375 51.40625 C 72.984375 51.449219 72.988281 51.488281 72.988281 51.527344 C 72.988281 51.566406 72.988281 51.601562 72.988281 51.632812 L 72.988281 52.769531 L 72.527344 52.769531 L 72.527344 50.328125 L 73.230469 50.328125 L 73.757812 52.195312 L 73.769531 52.195312 L 74.332031 50.328125 L 75.035156 50.328125 L 75.035156 52.769531 L 74.550781 52.769531 L 74.550781 51.613281 C 74.550781 51.585938 74.550781 51.550781 74.550781 51.515625 C 74.554688 51.476562 74.554688 51.4375 74.554688 51.398438 C 74.558594 51.355469 74.558594 51.316406 74.558594 51.273438 C 74.5625 51.230469 74.5625 51.1875 74.5625 51.148438 C 74.570312 51.054688 74.574219 50.957031 74.574219 50.855469 L 74.5625 50.855469 L 73.984375 52.769531 L 73.507812 52.769531 "/>
<path style=" stroke:none;fill-rule:nonzero;fill:rgb(82.352941%,12.941176%,15.686275%);fill-opacity:1;" d="M 7.277344 48.289062 L 9.796875 42.265625 L 10.285156 42.265625 L 12.808594 48.289062 L 12.171875 48.289062 L 11.390625 46.40625 L 8.679688 46.40625 L 7.90625 48.289062 Z M 10.042969 42.960938 L 8.804688 45.9375 L 11.25 45.9375 Z M 10.042969 42.960938 "/>
<path style=" stroke:none;fill-rule:nonzero;fill:rgb(82.352941%,12.941176%,15.686275%);fill-opacity:1;" d="M 13.453125 48.289062 L 13.453125 42.265625 L 15.949219 42.265625 C 16.980469 42.265625 17.726562 43.222656 17.726562 44.15625 C 17.726562 45.140625 17.03125 46.066406 16 46.066406 L 14.039062 46.066406 L 14.039062 48.289062 Z M 14.039062 45.539062 L 15.96875 45.539062 C 16.679688 45.539062 17.140625 44.882812 17.140625 44.15625 C 17.140625 43.398438 16.582031 42.792969 15.917969 42.792969 L 14.039062 42.792969 Z M 14.039062 45.539062 "/>
<path style=" stroke:none;fill-rule:nonzero;fill:rgb(82.352941%,12.941176%,15.686275%);fill-opacity:1;" d="M 17.402344 48.289062 L 19.921875 42.265625 L 20.410156 42.265625 L 22.929688 48.289062 L 22.285156 48.289062 L 21.503906 46.40625 L 18.796875 46.40625 L 18.023438 48.289062 Z M 20.167969 42.960938 L 18.929688 45.9375 L 21.375 45.9375 Z M 20.167969 42.960938 "/>
<path style=" stroke:none;fill-rule:nonzero;fill:rgb(82.352941%,12.941176%,15.686275%);fill-opacity:1;" d="M 25.777344 42.226562 C 26.84375 42.226562 27.628906 42.769531 28 43.542969 L 27.523438 43.828125 C 27.140625 43.03125 26.394531 42.761719 25.746094 42.761719 C 24.300781 42.761719 23.515625 44.050781 23.515625 45.261719 C 23.515625 46.59375 24.492188 47.800781 25.769531 47.800781 C 26.449219 47.800781 27.25 47.460938 27.628906 46.679688 L 28.117188 46.933594 C 27.730469 47.835938 26.660156 48.335938 25.734375 48.335938 C 24.082031 48.335938 22.914062 46.757812 22.914062 45.230469 C 22.914062 43.785156 23.960938 42.226562 25.777344 42.226562 Z M 25.777344 42.226562 "/>
<path style=" stroke:none;fill-rule:nonzero;fill:rgb(82.352941%,12.941176%,15.686275%);fill-opacity:1;" d="M 33.699219 42.265625 L 33.699219 48.289062 L 33.105469 48.289062 L 33.105469 45.472656 L 29.535156 45.472656 L 29.535156 48.289062 L 28.953125 48.289062 L 28.953125 42.265625 L 29.535156 42.265625 L 29.535156 44.945312 L 33.105469 44.945312 L 33.105469 42.265625 Z M 33.699219 42.265625 "/>
<path style=" stroke:none;fill-rule:nonzero;fill:rgb(82.352941%,12.941176%,15.686275%);fill-opacity:1;" d="M 39.109375 47.765625 L 39.109375 48.289062 L 35.0625 48.289062 L 35.0625 42.265625 L 39.03125 42.265625 L 39.03125 42.792969 L 35.644531 42.792969 L 35.644531 44.964844 L 38.597656 44.964844 L 38.597656 45.464844 L 35.644531 45.464844 L 35.644531 47.765625 Z M 39.109375 47.765625 "/>
<path style=" stroke:none;fill-rule:nonzero;fill:url(#linear0);" d="M 63.917969 2.386719 C 63.117188 2.867188 61.777344 4.203125 60.191406 6.144531 L 61.652344 8.90625 C 62.675781 7.433594 63.726562 6.117188 64.78125 4.988281 C 64.855469 4.902344 64.902344 4.855469 64.902344 4.855469 C 64.867188 4.902344 64.816406 4.941406 64.78125 4.988281 C 64.433594 5.359375 63.402344 6.566406 61.84375 8.964844 C 63.347656 8.886719 65.648438 8.582031 67.53125 8.257812 C 68.097656 5.121094 66.988281 3.6875 66.988281 3.6875 C 66.988281 3.6875 65.574219 1.402344 63.917969 2.386719 Z M 63.917969 2.386719 "/>
<path style=" stroke:none;fill-rule:nonzero;fill:rgb(74.509804%,12.54902%,18.039216%);fill-opacity:1;" d="M 58.996094 25.574219 C 58.804688 25.613281 58.613281 25.640625 58.425781 25.667969 C 58.519531 25.660156 58.625 25.640625 58.71875 25.621094 C 58.816406 25.613281 58.910156 25.59375 58.996094 25.574219 Z M 58.996094 25.574219 "/>
<use xlink:href="#surface5" mask="url(#mask0)"/>
<path style=" stroke:none;fill-rule:nonzero;fill:rgb(74.509804%,12.54902%,18.039216%);fill-opacity:1;" d="M 59.496094 23.15625 C 59.484375 23.15625 59.484375 23.15625 59.496094 23.15625 C 59.523438 23.15625 59.550781 23.144531 59.582031 23.144531 C 59.703125 23.128906 59.828125 23.109375 59.945312 23.078125 C 59.800781 23.109375 59.648438 23.128906 59.496094 23.15625 Z M 59.496094 23.15625 "/>
<use xlink:href="#surface8" mask="url(#mask1)"/>
<path style=" stroke:none;fill-rule:nonzero;fill:url(#linear1);" d="M 57.335938 16.035156 C 57.785156 15.203125 58.234375 14.390625 58.683594 13.597656 C 59.148438 12.777344 59.628906 11.984375 60.117188 11.210938 C 60.144531 11.160156 60.171875 11.113281 60.203125 11.074219 C 60.679688 10.320312 61.15625 9.59375 61.644531 8.898438 L 60.183594 6.144531 C 60.078125 6.277344 59.960938 6.410156 59.847656 6.554688 C 59.425781 7.082031 58.988281 7.644531 58.539062 8.246094 C 58.03125 8.925781 57.515625 9.640625 56.980469 10.398438 C 56.492188 11.09375 55.996094 11.832031 55.5 12.585938 C 55.078125 13.234375 54.660156 13.894531 54.238281 14.574219 C 54.21875 14.601562 54.210938 14.621094 54.191406 14.648438 L 56.09375 18.40625 C 56.511719 17.613281 56.921875 16.820312 57.335938 16.035156 Z M 57.335938 16.035156 "/>
<path style=" stroke:none;fill-rule:nonzero;fill:url(#linear2);" d="M 48.667969 37.222656 C 48.417969 37.914062 48.160156 38.621094 47.910156 39.347656 C 47.910156 39.355469 47.902344 39.363281 47.902344 39.375 C 47.863281 39.480469 47.824219 39.574219 47.796875 39.679688 C 47.625 40.167969 47.480469 40.605469 47.136719 41.601562 C 47.699219 41.859375 48.148438 42.527344 48.570312 43.292969 C 48.523438 42.5 48.199219 41.753906 47.578125 41.179688 C 50.339844 41.304688 52.726562 40.605469 53.949219 38.582031 C 54.054688 38.398438 54.160156 38.207031 54.257812 38.007812 C 53.691406 38.714844 53.003906 39.019531 51.695312 38.945312 C 51.695312 38.945312 51.6875 38.945312 51.6875 38.945312 C 51.6875 38.945312 51.695312 38.945312 51.695312 38.945312 C 53.617188 38.085938 54.582031 37.253906 55.433594 35.886719 C 55.632812 35.5625 55.832031 35.207031 56.035156 34.816406 C 54.351562 36.546875 52.402344 37.03125 50.347656 36.660156 L 48.808594 36.832031 C 48.761719 36.964844 48.714844 37.089844 48.667969 37.222656 Z M 48.667969 37.222656 "/>
<path style=" stroke:none;fill-rule:nonzero;fill:url(#linear3);" d="M 49.382812 33.773438 C 49.71875 32.914062 50.0625 32.042969 50.40625 31.164062 C 50.738281 30.324219 51.085938 29.484375 51.4375 28.632812 C 51.792969 27.78125 52.15625 26.929688 52.515625 26.082031 C 52.890625 25.210938 53.273438 24.351562 53.664062 23.492188 C 54.046875 22.640625 54.449219 21.789062 54.839844 20.949219 C 54.984375 20.640625 55.125 20.347656 55.28125 20.039062 C 55.527344 19.523438 55.785156 19.007812 56.042969 18.492188 C 56.054688 18.464844 56.074219 18.433594 56.082031 18.40625 L 54.199219 14.660156 C 54.171875 14.707031 54.140625 14.765625 54.105469 14.8125 C 53.664062 15.539062 53.214844 16.273438 52.785156 17.03125 C 52.34375 17.792969 51.914062 18.570312 51.496094 19.363281 C 51.140625 20.03125 50.796875 20.699219 50.453125 21.378906 C 50.386719 21.511719 50.320312 21.65625 50.253906 21.789062 C 49.839844 22.640625 49.460938 23.472656 49.125 24.265625 C 48.742188 25.164062 48.40625 26.023438 48.113281 26.835938 C 47.921875 27.371094 47.738281 27.886719 47.578125 28.382812 C 47.441406 28.804688 47.320312 29.234375 47.195312 29.65625 C 46.90625 30.648438 46.667969 31.644531 46.46875 32.636719 L 48.378906 36.410156 C 48.628906 35.734375 48.894531 35.054688 49.152344 34.355469 C 49.230469 34.164062 49.304688 33.976562 49.382812 33.773438 Z M 49.382812 33.773438 "/>
<path style=" stroke:none;fill-rule:nonzero;fill:url(#linear4);" d="M 46.4375 32.769531 C 46.199219 33.976562 46.027344 35.179688 45.941406 36.382812 C 45.941406 36.421875 45.933594 36.46875 45.933594 36.507812 C 45.339844 35.550781 43.734375 34.613281 43.742188 34.625 C 44.890625 36.289062 45.761719 37.929688 45.886719 39.546875 C 45.273438 39.671875 44.433594 39.488281 43.46875 39.136719 C 44.480469 40.0625 45.234375 40.320312 45.53125 40.386719 C 44.605469 40.445312 43.640625 41.085938 42.664062 41.820312 C 44.089844 41.238281 45.246094 41.007812 46.066406 41.199219 C 44.757812 44.898438 43.449219 48.988281 42.136719 53.328125 C 42.539062 53.214844 42.777344 52.9375 42.914062 52.574219 C 43.140625 51.789062 44.699219 46.628906 47.128906 39.851562 C 47.195312 39.660156 47.269531 39.46875 47.335938 39.269531 C 47.355469 39.210938 47.375 39.164062 47.394531 39.105469 C 47.652344 38.398438 47.921875 37.671875 48.199219 36.929688 C 48.265625 36.753906 48.320312 36.59375 48.390625 36.421875 C 48.390625 36.421875 48.390625 36.410156 48.390625 36.410156 L 46.476562 32.636719 C 46.457031 32.683594 46.449219 32.722656 46.4375 32.769531 Z M 46.4375 32.769531 "/>
<path style=" stroke:none;fill-rule:nonzero;fill:url(#linear5);" d="M 56.398438 18.730469 C 56.339844 18.84375 56.292969 18.949219 56.234375 19.066406 C 56.074219 19.410156 55.902344 19.753906 55.738281 20.105469 C 55.558594 20.488281 55.375 20.882812 55.183594 21.28125 C 55.089844 21.484375 54.992188 21.683594 54.898438 21.894531 C 54.609375 22.515625 54.324219 23.15625 54.027344 23.816406 C 53.664062 24.628906 53.300781 25.46875 52.929688 26.347656 C 52.574219 27.179688 52.210938 28.050781 51.847656 28.9375 C 51.503906 29.789062 51.152344 30.660156 50.796875 31.566406 C 50.480469 32.367188 50.167969 33.199219 49.839844 34.050781 C 49.824219 34.089844 49.8125 34.136719 49.792969 34.175781 C 49.476562 35.015625 49.152344 35.886719 48.828125 36.773438 C 48.820312 36.792969 48.808594 36.8125 48.808594 36.832031 L 50.347656 36.660156 C 50.320312 36.652344 50.289062 36.652344 50.253906 36.640625 C 52.097656 36.410156 54.542969 35.035156 56.121094 33.335938 C 56.847656 32.550781 57.507812 31.632812 58.117188 30.554688 C 58.578125 29.75 58.996094 28.863281 59.410156 27.867188 C 59.761719 27.007812 60.105469 26.070312 60.429688 25.058594 C 60.011719 25.277344 59.523438 25.441406 58.988281 25.554688 C 58.890625 25.574219 58.796875 25.59375 58.699219 25.613281 C 58.605469 25.632812 58.511719 25.640625 58.40625 25.660156 C 60.125 25 61.203125 23.730469 61.988281 22.160156 C 61.539062 22.46875 60.804688 22.871094 59.925781 23.070312 C 59.808594 23.097656 59.683594 23.117188 59.5625 23.136719 C 59.53125 23.136719 59.503906 23.144531 59.464844 23.144531 C 60.058594 22.898438 60.566406 22.621094 61.003906 22.285156 C 61.101562 22.21875 61.1875 22.144531 61.273438 22.066406 C 61.40625 21.953125 61.53125 21.828125 61.652344 21.703125 C 61.730469 21.617188 61.808594 21.539062 61.882812 21.453125 C 62.054688 21.253906 62.21875 21.035156 62.363281 20.796875 C 62.410156 20.71875 62.457031 20.652344 62.496094 20.574219 C 62.550781 20.460938 62.609375 20.355469 62.65625 20.25 C 62.898438 19.773438 63.085938 19.34375 63.242188 18.960938 C 63.316406 18.769531 63.382812 18.597656 63.441406 18.433594 C 63.460938 18.367188 63.488281 18.308594 63.507812 18.242188 C 63.566406 18.0625 63.621094 17.898438 63.660156 17.757812 C 63.71875 17.546875 63.757812 17.375 63.777344 17.25 C 63.71875 17.296875 63.652344 17.34375 63.574219 17.382812 C 63.058594 17.6875 62.171875 17.976562 61.453125 18.109375 L 62.867188 17.957031 L 61.453125 18.109375 C 61.445312 18.109375 61.433594 18.109375 61.425781 18.121094 C 61.359375 18.128906 61.28125 18.136719 61.203125 18.15625 C 61.214844 18.148438 61.234375 18.148438 61.242188 18.136719 L 56.40625 18.664062 C 56.417969 18.703125 56.40625 18.722656 56.398438 18.730469 Z M 56.398438 18.730469 "/>
<path style=" stroke:none;fill-rule:nonzero;fill:url(#linear6);" d="M 61.84375 8.964844 C 61.414062 9.621094 60.945312 10.378906 60.441406 11.21875 C 60.410156 11.265625 60.382812 11.304688 60.363281 11.351562 C 59.925781 12.089844 59.464844 12.890625 58.976562 13.78125 C 58.558594 14.546875 58.117188 15.355469 57.660156 16.246094 C 57.257812 17.011719 56.855469 17.824219 56.425781 18.683594 L 61.261719 18.15625 C 62.667969 17.507812 63.296875 16.925781 63.910156 16.074219 C 64.070312 15.84375 64.234375 15.597656 64.398438 15.339844 C 64.894531 14.5625 65.382812 13.714844 65.8125 12.863281 C 66.230469 12.039062 66.605469 11.230469 66.882812 10.503906 C 67.0625 10.035156 67.207031 9.605469 67.3125 9.222656 C 67.398438 8.886719 67.464844 8.570312 67.523438 8.265625 C 65.648438 8.582031 63.347656 8.886719 61.84375 8.964844 Z M 61.84375 8.964844 "/>
<path style=" stroke:none;fill-rule:nonzero;fill:rgb(74.509804%,12.54902%,18.039216%);fill-opacity:1;" d="M 58.71875 25.632812 C 58.625 25.652344 58.527344 25.660156 58.425781 25.679688 C 58.519531 25.660156 58.613281 25.640625 58.71875 25.632812 Z M 58.71875 25.632812 "/>
<use xlink:href="#surface11" mask="url(#mask2)"/>
<path style=" stroke:none;fill-rule:nonzero;fill:url(#linear7);" d="M 58.71875 25.632812 C 58.625 25.652344 58.527344 25.660156 58.425781 25.679688 C 58.519531 25.660156 58.613281 25.640625 58.71875 25.632812 Z M 58.71875 25.632812 "/>
<path style=" stroke:none;fill-rule:nonzero;fill:rgb(74.509804%,12.54902%,18.039216%);fill-opacity:1;" d="M 59.484375 23.15625 C 59.511719 23.15625 59.542969 23.144531 59.582031 23.144531 C 59.550781 23.144531 59.523438 23.15625 59.484375 23.15625 Z M 59.484375 23.15625 "/>
<use xlink:href="#surface14" mask="url(#mask3)"/>
<path style=" stroke:none;fill-rule:nonzero;fill:url(#linear8);" d="M 59.484375 23.15625 C 59.511719 23.15625 59.542969 23.144531 59.582031 23.144531 C 59.550781 23.144531 59.523438 23.15625 59.484375 23.15625 Z M 59.484375 23.15625 "/>
</g>
</svg>
