<?xml version="1.0" encoding="UTF-8"?>
<svg xmlns="http://www.w3.org/2000/svg" xmlns:xlink="http://www.w3.org/1999/xlink" width="80px" height="84px" viewBox="0 0 80 84" version="1.1">
<g id="surface1">
<path style=" stroke:none;fill-rule:evenodd;fill:rgb(1.960784%,0%,21.960784%);fill-opacity:1;" d="M 38.953125 76.5625 L 34.523438 75.507812 L 34.523438 57.722656 L 38.953125 56.882812 Z M 69.953125 72.367188 C 66.738281 72.378906 64.132812 69.792969 64.109375 66.589844 L 64.109375 66.558594 C 64.109375 63.40625 66.707031 60.820312 69.941406 60.820312 C 73.175781 60.820312 75.773438 63.40625 75.773438 66.558594 C 75.78125 69.761719 73.175781 72.359375 69.972656 72.367188 Z M 80 66.558594 C 80 72.089844 75.503906 76.570312 69.953125 76.570312 C 64.398438 76.570312 59.902344 72.089844 59.902344 66.558594 C 59.902344 61.097656 64.410156 56.617188 69.960938 56.617188 C 75.515625 56.617188 80 61.097656 80 66.558594 Z M 22.988281 75.519531 L 27.347656 76.421875 L 27.347656 64.449219 C 27.347656 58.703125 22.851562 56.679688 19.753906 56.679688 C 17.714844 56.679688 16.027344 57.171875 14.554688 58.640625 C 13.007812 57.171875 11.179688 56.605469 9.707031 56.605469 C 7.527344 56.605469 5.703125 57.511719 4.429688 59.054688 L 4.429688 57.023438 L 0 57.863281 L 0 75.507812 L 4.429688 76.414062 L 4.429688 64.3125 C 4.429688 62.355469 5.839844 61.023438 8.007812 61.023438 C 10.046875 61.023438 11.523438 62.355469 11.523438 64.3125 L 11.523438 75.519531 L 15.878906 76.421875 L 15.878906 64.3125 C 15.878906 62.355469 17.351562 61.023438 19.464844 61.023438 C 21.503906 61.023438 22.980469 62.355469 22.980469 64.3125 Z M 56.59375 56.617188 L 53.988281 56.96875 C 49.140625 58.085938 45.980469 59.628906 45.980469 64.949219 L 45.980469 75.519531 L 50.410156 76.359375 L 50.410156 65.578125 C 50.410156 63.128906 51.820312 62.003906 54 61.585938 L 56.605469 61.171875 Z M 34.734375 49.328125 C 33.679688 50.402344 33.679688 52.105469 34.734375 53.179688 C 35.8125 54.285156 37.597656 54.296875 38.699219 53.222656 L 38.738281 53.179688 C 39.796875 52.117188 39.796875 50.390625 38.738281 49.328125 C 37.609375 48.273438 35.855469 48.273438 34.734375 49.328125 Z M 34.734375 49.328125 "/>
<path style=" stroke:none;fill-rule:nonzero;fill:rgb(100%,81.568627%,18.431373%);fill-opacity:1;" d="M 25.980469 7.429688 L 46.429688 7.429688 C 50.742188 7.429688 54.246094 10.917969 54.246094 15.21875 L 54.246094 35.597656 C 54.246094 39.898438 50.742188 43.390625 46.429688 43.390625 L 25.980469 43.390625 C 21.664062 43.390625 18.164062 39.898438 18.164062 35.597656 L 18.164062 15.21875 C 18.164062 10.917969 21.664062 7.429688 25.980469 7.429688 Z M 25.980469 7.429688 "/>
<path style=" stroke:none;fill-rule:nonzero;fill:rgb(1.960784%,0%,21.960784%);fill-opacity:1;" d="M 43.234375 11.917969 L 39.273438 11.917969 L 42.574219 17.699219 L 35.3125 11.917969 L 31.351562 11.917969 L 34.980469 18.984375 L 27.390625 11.917969 L 23.425781 11.917969 L 27.390625 20.910156 L 23.425781 38.898438 L 27.390625 38.898438 L 34.980469 19.625 L 31.351562 38.898438 L 35.3125 38.898438 L 42.574219 18.347656 L 39.273438 38.898438 L 43.234375 38.898438 L 50.496094 16.410156 Z M 43.234375 11.917969 "/>
</g>
</svg>
