<?xml version="1.0" encoding="UTF-8"?>
<svg version="1.1" xmlns="http://www.w3.org/2000/svg" width="75" height="75">
<path d="M0 0 C24.75 0 49.5 0 75 0 C75 24.75 75 49.5 75 75 C50.25 75 25.5 75 0 75 C0 50.25 0 25.5 0 0 Z " fill="#3AACED" transform="translate(0,0)"/>
<path d="M0 0 C24.75 0 49.5 0 75 0 C75 24.75 75 49.5 75 75 C50.25 75 25.5 75 0 75 C0 50.25 0 25.5 0 0 Z M9 10 C7.14336655 12.92805525 6.74515351 15.19237056 6.7253418 18.62915039 C6.71580978 19.54011978 6.70627777 20.45108917 6.69645691 21.3896637 C6.69736832 22.36580124 6.69827972 23.34193878 6.69921875 24.34765625 C6.69493362 25.35589951 6.6906485 26.36414276 6.68623352 27.40293884 C6.68049563 29.53204599 6.67998597 31.66117275 6.68432617 33.7902832 C6.68749164 37.05388597 6.66400076 40.31658705 6.63867188 43.58007812 C6.63639945 45.64843635 6.63569512 47.71679703 6.63671875 49.78515625 C6.627509 50.76331802 6.61829926 51.7414798 6.60881042 52.74928284 C6.61503922 53.65710007 6.62126801 54.5649173 6.62768555 55.50024414 C6.62705612 56.29870255 6.6264267 57.09716095 6.6257782 57.91981506 C7.08666757 60.48175863 8.02486207 61.36989231 10 63 C9.83701416 62.46536133 9.67402832 61.93072266 9.50610352 61.37988281 C8.8949893 58.5062015 8.8879395 55.86034246 8.90234375 52.921875 C8.90556641 51.76171875 8.90878906 50.6015625 8.91210938 49.40625 C8.92048828 48.1996875 8.92886719 46.993125 8.9375 45.75 C8.94201172 44.52796875 8.94652344 43.3059375 8.95117188 42.046875 C8.96295185 39.03120054 8.97940147 36.01562502 9 33 C9.27263672 33.93972656 9.27263672 33.93972656 9.55078125 34.8984375 C9.80214844 35.71570313 10.05351562 36.53296875 10.3125 37.375 C10.55613281 38.18710937 10.79976562 38.99921875 11.05078125 39.8359375 C11.91368185 42.33184629 11.91368185 42.33184629 15 44 C14.34 44.66 13.68 45.32 13 46 C12.16458146 48.36757327 12.16458146 48.36757327 13 51 C21.04879965 58.45826272 32.39409616 59.49701124 42.8125 59.375 C44.3274707 59.39240234 44.3274707 59.39240234 45.87304688 59.41015625 C53.01585167 59.50899409 53.01585167 59.50899409 59 56 C59.17861158 52.46711986 59.17861158 52.46711986 58.984375 50.0625 C59.01698115 45.75848827 61.69498822 42.45751767 64 39 C64.39013716 37.0103005 64.73202649 35.00980131 65 33 C65.05817206 37.22910869 65.09365463 41.45811409 65.125 45.6875 C65.14175781 46.88568359 65.15851563 48.08386719 65.17578125 49.31835938 C65.18544922 51.05375977 65.18544922 51.05375977 65.1953125 52.82421875 C65.21102295 54.41882935 65.21102295 54.41882935 65.22705078 56.0456543 C64.99375431 59.08126781 64.28205135 61.25623267 63 64 C63.66 64 64.32 64 65 64 C67.85281314 58.35962952 68.45556082 53.86992795 68.43359375 47.59375 C68.4388356 46.71021851 68.44407745 45.82668701 68.44947815 44.91638184 C68.45587171 43.05738369 68.45459608 41.19834494 68.44604492 39.33935547 C68.43752423 36.50805202 68.4663499 33.67876142 68.49804688 30.84765625 C68.49965897 29.03385477 68.49908119 27.22004974 68.49609375 25.40625 C68.50732773 24.56751343 68.51856171 23.72877686 68.53013611 22.86462402 C68.46246572 17.110135 67.5683624 13.59611739 64 9 C58.62509345 5.75272979 53.68834474 5.54507473 47.59375 5.56640625 C46.71021851 5.5611644 45.82668701 5.55592255 44.91638184 5.55052185 C43.05738369 5.54412829 41.19834494 5.54540392 39.33935547 5.55395508 C36.50805202 5.56247577 33.67876142 5.5336501 30.84765625 5.50195312 C29.03385477 5.50034103 27.22004974 5.50091881 25.40625 5.50390625 C24.14814514 5.48705528 24.14814514 5.48705528 22.86462402 5.46986389 C17.11527015 5.53747389 13.67578833 6.58374276 9 10 Z " fill="#1B8CE7" transform="translate(0,0)"/>
<path d="M0 0 C4.01818737 5.35758316 3.64287147 11.58889818 3 18 C1.38348199 22.76447412 -0.8099758 25.24071577 -5 28 C-10.62210149 29.75400274 -16.11705239 29.60637296 -21.6875 27.8125 C-26.59300681 25.12835477 -30.85505002 22.3770664 -33 17 C-33.68530862 12.17096486 -33.519684 8.14763551 -31.5 3.6875 C-23.20884051 -5.22549645 -9.86481388 -8.90239301 0 0 Z " fill="#23313F" transform="translate(57,24)"/>
<path d="M0 0 C2.98091298 1.84115214 4.70792762 4.22770095 6.7265625 7.06640625 C6.20449219 6.83824219 5.68242188 6.61007813 5.14453125 6.375 C-1.87164633 3.63488161 -8.58248221 3.05710085 -15.64453125 6.08203125 C-19.61650819 8.38504907 -22.69652572 10.63134186 -24.2734375 15.06640625 C-24.93566973 20.06248739 -24.85372397 23.86119589 -22.6484375 28.44140625 C-18.47028466 33.05936465 -14.33974772 35.67555943 -8.16015625 36.26953125 C-2.72252313 36.38543107 0.95349296 35.73932519 5.7265625 33.06640625 C9.58329236 28.95256106 9.90998186 24.84849831 10.2890625 19.37890625 C10.37285156 18.19941406 10.45664062 17.01992188 10.54296875 15.8046875 C10.63384766 14.44923828 10.63384766 14.44923828 10.7265625 13.06640625 C11.7165625 13.72640625 12.7065625 14.38640625 13.7265625 15.06640625 C14.54214026 19.58406739 14.3417853 23.83596064 12.2890625 27.94140625 C11.7734375 28.64265625 11.2578125 29.34390625 10.7265625 30.06640625 C9.78898133 32.70868046 9.74414767 34.28182457 9.9765625 37.12890625 C9.7265625 40.06640625 9.7265625 40.06640625 7.91015625 41.7265625 C3.14893139 43.73036634 -1.34865504 43.50013062 -6.4609375 43.44140625 C-7.45158203 43.45300781 -8.44222656 43.46460938 -9.46289062 43.4765625 C-18.85451179 43.43961186 -29.11057219 41.70373524 -36.2734375 35.06640625 C-36.8984375 32.37890625 -36.8984375 32.37890625 -36.2734375 30.06640625 C-35.6134375 29.40640625 -34.9534375 28.74640625 -34.2734375 28.06640625 C-34.9334375 27.59203125 -35.5934375 27.11765625 -36.2734375 26.62890625 C-38.83955159 23.34107257 -38.9149505 21.18225141 -38.72265625 17.09765625 C-38.2734375 15.06640625 -38.2734375 15.06640625 -36.1484375 13.50390625 C-35.1996875 13.02953125 -34.2509375 12.55515625 -33.2734375 12.06640625 C-31.79939616 10.27588375 -31.79939616 10.27588375 -30.3984375 8.19140625 C-23.13974981 -1.99326407 -11.55692224 -4.92239281 0 0 Z " fill="#A8B9DC" transform="translate(49.2734375,15.93359375)"/>
<path d="M0 0 C0.33 0 0.66 0 1 0 C1.07425639 5.88986463 1.12865268 11.77945566 1.16479492 17.66967773 C1.17986465 19.67265572 1.2003241 21.6756008 1.22631836 23.6784668 C1.26278127 26.56046681 1.27974461 29.44202984 1.29296875 32.32421875 C1.30845261 33.21711105 1.32393646 34.11000336 1.33988953 35.029953 C1.34213619 43.36342183 1.34213619 43.36342183 -2 47 C-6.87057659 49.40555367 -11.77321636 49.30667598 -17.08984375 49.30078125 C-17.95259415 49.30506638 -18.81534454 49.3093515 -19.70423889 49.31376648 C-21.52213669 49.31948879 -23.34005738 49.32002557 -25.15795898 49.31567383 C-27.92536812 49.31251385 -30.69170715 49.33599892 -33.45898438 49.36132812 C-35.2317695 49.36360148 -37.00455747 49.36430445 -38.77734375 49.36328125 C-40.00734352 49.37709587 -40.00734352 49.37709587 -41.26219177 49.39118958 C-46.56373131 49.34890415 -50.3518886 48.63356996 -55 46 C-57.60563728 42.7704023 -57.23063105 39.29194015 -57.1953125 35.265625 C-57.18886719 33.97011719 -57.18242188 32.67460938 -57.17578125 31.33984375 C-57.15907193 29.97655981 -57.14214206 28.61327856 -57.125 27.25 C-57.1149634 25.87110015 -57.10583873 24.49219335 -57.09765625 23.11328125 C-57.07408093 19.74201118 -57.0411727 16.37109364 -57 13 C-54.81582327 16.2762651 -53.95515728 19.19605266 -52.87890625 22.94140625 C-52.07444916 25.3457253 -52.07444916 25.3457253 -49 27 C-49.66 27.66 -50.32 28.32 -51 29 C-51.16687448 31.58354218 -51.16687448 31.58354218 -51 34 C-49.67413531 34.80411238 -48.33876169 35.59254807 -47 36.375 C-46.2575 36.81585938 -45.515 37.25671875 -44.75 37.7109375 C-37.35819409 41.17584652 -30.27548306 41.31134127 -22.25 41.25 C-21.22261719 41.25773437 -20.19523437 41.26546875 -19.13671875 41.2734375 C-18.14800781 41.27085938 -17.15929688 41.26828125 -16.140625 41.265625 C-14.80306152 41.26224121 -14.80306152 41.26224121 -13.43847656 41.25878906 C-10.86313998 40.98547541 -9.21942261 40.30015042 -7 39 C-7.061875 37.80375 -7.12375 36.6075 -7.1875 35.375 C-7.19710969 29.94552603 -4.96086551 26.44129826 -2 22 C-0.94921865 17.25408689 -0.70443993 12.46492729 -0.4375 7.625 C-0.37272461 6.52091797 -0.37272461 6.52091797 -0.30664062 5.39453125 C-0.20156201 3.59651932 -0.10037907 1.79828042 0 0 Z " fill="#1567DE" transform="translate(65,17)"/>
<path d="M0 0 C11.49730562 -0.40184758 11.49730562 -0.40184758 15 2 C18.20830322 5.72519652 20.30955134 9.25720254 20.375 14.25 C19.78571429 20.14285714 19.78571429 20.14285714 19 22 C16 24 16 24 13 24 C13 23.34 13 22.68 13 22 C12.01 22.103125 11.02 22.20625 10 22.3125 C5.08903045 22.3025386 1.70948097 20.05108825 -2 17 C-5.12859135 13.48987312 -6 11.97165027 -6 7.25 C-5 4 -5 4 -3 2.6875 C-2.34 2.460625 -1.68 2.23375 -1 2 C-0.67 1.34 -0.34 0.68 0 0 Z " fill="#698898" transform="translate(39,21)"/>
<path d="M0 0 C2.98091298 1.84115214 4.70792762 4.22770095 6.7265625 7.06640625 C6.20449219 6.83824219 5.68242188 6.61007813 5.14453125 6.375 C-1.1712581 3.90841327 -6.65294457 3.41859579 -13.2734375 5.06640625 C-15.5684299 6.21957376 -17.56251206 7.47115904 -19.6171875 9.0078125 C-21.2734375 10.06640625 -21.2734375 10.06640625 -24.2734375 10.06640625 C-24.5621875 10.82953125 -24.8509375 11.59265625 -25.1484375 12.37890625 C-26.2734375 15.06640625 -26.2734375 15.06640625 -28.2734375 18.06640625 C-28.6034375 17.73640625 -28.9334375 17.40640625 -29.2734375 17.06640625 C-29.6034375 18.05640625 -29.9334375 19.04640625 -30.2734375 20.06640625 C-30.9334375 20.06640625 -31.5934375 20.06640625 -32.2734375 20.06640625 C-32.2734375 22.04640625 -32.2734375 24.02640625 -32.2734375 26.06640625 C-33.9234375 26.06640625 -35.5734375 26.06640625 -37.2734375 26.06640625 C-39.00103979 22.61120168 -38.89015093 18.83676789 -38.2734375 15.06640625 C-36.1484375 13.50390625 -36.1484375 13.50390625 -33.2734375 12.06640625 C-31.79939616 10.27588375 -31.79939616 10.27588375 -30.3984375 8.19140625 C-23.13974981 -1.99326407 -11.55692224 -4.92239281 0 0 Z " fill="#E0EAF7" transform="translate(49.2734375,15.93359375)"/>
<path d="M0 0 C3.22018514 1.05611706 4.37871948 2.70668105 5.94140625 5.63671875 C6.37890625 8.82421875 6.37890625 8.82421875 5.94140625 11.63671875 C2.27275384 14.08248702 0.26940282 13.87279129 -4.05859375 13.63671875 C-4.71859375 13.30671875 -5.37859375 12.97671875 -6.05859375 12.63671875 C-6.05859375 11.97671875 -6.05859375 11.31671875 -6.05859375 10.63671875 C-7.37859375 10.30671875 -8.69859375 9.97671875 -10.05859375 9.63671875 C-9.47154922 3.41404669 -9.47154922 3.41404669 -7.99609375 0.63671875 C-5.29216686 -0.75885642 -2.94386421 -0.50419774 0 0 Z " fill="#93ADBC" transform="translate(52.05859375,23.36328125)"/>
<path d="M0 0 C0.99 0.33 1.98 0.66 3 1 C2.4225 1.185625 1.845 1.37125 1.25 1.5625 C-2.58548809 4.01295073 -3.9947826 7.9895652 -6 12 C-6.49259331 16.92593307 -6.58881845 19.02476944 -4 23.3125 C-0.87597217 26.61658707 2.71665645 27.69321722 7 29 C7 28.34 7 27.68 7 27 C10.3 27.33 13.6 27.66 17 28 C17.33 28.99 17.66 29.98 18 31 C10.83628437 33.00519354 4.59449853 32.60831052 -2 29 C-5.58870657 26.51932725 -8.35820895 24.11572277 -10 20 C-10.69671833 15.09056616 -10.53659091 11.11445804 -8.375 6.625 C-5.7855285 3.76295255 -3.40889281 1.81324086 0 0 Z " fill="#19212C" transform="translate(34,21)"/>
<path d="M0 0 C3.3 0 6.6 0 10 0 C6.36654198 1.81672901 2.73757294 3.41871914 -1 5 C-0.50263981 10.74519583 -0.50263981 10.74519583 3 15 C3 15.99 3 16.98 3 18 C8.28 18.66 13.56 19.32 19 20 C19 20.66 19 21.32 19 22 C16 24 16 24 13 24 C13 23.34 13 22.68 13 22 C12.01 22.103125 11.02 22.20625 10 22.3125 C5.08903045 22.3025386 1.70948097 20.05108825 -2 17 C-5.12859135 13.48987312 -6 11.97165027 -6 7.25 C-5 4 -5 4 -3 2.6875 C-2.34 2.460625 -1.68 2.23375 -1 2 C-0.67 1.34 -0.34 0.68 0 0 Z " fill="#4E6A7A" transform="translate(39,21)"/>
<path d="M0 0 C0.33 0 0.66 0 1 0 C1 13.2 1 26.4 1 40 C0.01 39.34 -0.98 38.68 -2 38 C-2.66 38.66 -3.32 39.32 -4 40 C-4.99 39.67 -5.98 39.34 -7 39 C-7.36981234 31.85029479 -6.01221221 28.01831832 -2 22 C-0.94921865 17.25408689 -0.70443993 12.46492729 -0.4375 7.625 C-0.37272461 6.52091797 -0.37272461 6.52091797 -0.30664062 5.39453125 C-0.20156201 3.59651932 -0.10037907 1.79828042 0 0 Z " fill="#1179E2" transform="translate(65,17)"/>
<path d="M0 0 C5.88217123 -0.31511632 10.81399121 -0.01872153 16 3 C17.98140428 4.8854525 19.40292631 6.75411512 21 9 C19.80375 8.484375 18.6075 7.96875 17.375 7.4375 C8.35260134 4.43003378 -1.51385147 6.09637168 -10 10 C-8.53563715 5.36285097 -8.53563715 5.36285097 -6.0625 3.6875 C-4 3 -4 3 -1 3 C-0.67 2.01 -0.34 1.02 0 0 Z " fill="#F2F6FA" transform="translate(35,14)"/>
<path d="M0 0 C0.66 0.33 1.32 0.66 2 1 C1.67773438 1.55945313 1.35546875 2.11890625 1.0234375 2.6953125 C-0.75169616 6.6927509 -0.55016649 10.71413515 0 15 C2.2600477 19.43638994 5.39526698 22.59552993 9 26 C3.20622843 25.02149636 -1.40073944 23.90937148 -6 20 C-7.68350848 15.53258924 -6.48843405 11.38696351 -5 7 C-2.9375 4.0625 -2.9375 4.0625 -1 2 C-0.67 1.34 -0.34 0.68 0 0 Z " fill="#C0CFE8" transform="translate(25,26)"/>
<path d="M0 0 C3 1 3 1 4.6875 3.3125 C6.95128346 9.67265354 7.0260753 16.21493848 4.6875 22.5625 C3.23797419 24.6562595 2.00379766 26.43181053 0 28 C-0.66 28 -1.32 28 -2 28 C-2 26.68 -2 25.36 -2 24 C-2.721875 23.87625 -3.44375 23.7525 -4.1875 23.625 C-8.2008506 22.73314431 -11.08747561 22.06985618 -13.8125 18.875 C-14.204375 18.25625 -14.59625 17.6375 -15 17 C-14.154375 17.309375 -13.30875 17.61875 -12.4375 17.9375 C-8.9502146 19.01538821 -5.61822465 19.56581304 -2 20 C-2 20.66 -2 21.32 -2 22 C-0.02 21.34 1.96 20.68 4 20 C4.62144933 10.21017215 4.62144933 10.21017215 0 2 C0 1.34 0 0.68 0 0 Z " fill="#33445A" transform="translate(54,23)"/>
<path d="M0 0 C0.99 0.66 1.98 1.32 3 2 C3.78318758 6.33824491 3.64861544 10.63790757 1.75 14.625 C0.88375 15.800625 0.88375 15.800625 0 17 C-1.04697519 19.09395037 -2.04277065 21.20784733 -3.03515625 23.328125 C-4 25 -4 25 -6 26 C-8.71760108 26.07181821 -11.40859388 26.09299506 -14.125 26.0625 C-14.87910156 26.05798828 -15.63320313 26.05347656 -16.41015625 26.04882812 C-18.27347127 26.03703499 -20.13674555 26.01909942 -22 26 C-19.40384737 23.40384737 -17.79386451 23.56078757 -14.1875 23.125 C-9.41268079 22.38733332 -6.26435111 21.80840963 -3 18 C-1.07786044 14.05822105 -0.63898498 10.54325225 -0.375 6.1875 C-0.30023438 5.02605469 -0.22546875 3.86460938 -0.1484375 2.66796875 C-0.09945312 1.78753906 -0.05046875 0.90710938 0 0 Z " fill="#99ACD3" transform="translate(60,29)"/>
<path d="M0 0 C0.66 0 1.32 0 2 0 C2.3125 2.8125 2.3125 2.8125 2 6 C-1.74954284 8.97757813 -4.60794061 9.34259536 -9.3125 9.1875 C-10.91544922 9.14689453 -10.91544922 9.14689453 -12.55078125 9.10546875 C-13.35902344 9.07066406 -14.16726562 9.03585938 -15 9 C-15 8.67 -15 8.34 -15 8 C-19.95 7.01 -24.9 6.02 -30 5 C-30 4.67 -30 4.34 -30 4 C-29.19256348 4.00523682 -28.38512695 4.01047363 -27.55322266 4.01586914 C-23.91048962 4.03659929 -20.26776898 4.04964749 -16.625 4.0625 C-15.35398437 4.07087891 -14.08296875 4.07925781 -12.7734375 4.08789062 C-11.56171875 4.09111328 -10.35 4.09433594 -9.1015625 4.09765625 C-7.98088379 4.10289307 -6.86020508 4.10812988 -5.70556641 4.11352539 C-3.03132657 4.18621466 -3.03132657 4.18621466 -1 3 C-0.67 2.01 -0.34 1.02 0 0 Z " fill="#D5DFF3" transform="translate(57,50)"/>
<path d="M0 0 C0.99 0.99 1.98 1.98 3 3 C-4.425 2.01 -4.425 2.01 -12 1 C-12.33 1.99 -12.66 2.98 -13 4 C-13.99 4.33 -14.98 4.66 -16 5 C-17.28037937 9.7018215 -17.28037937 9.7018215 -15.953125 14.24609375 C-14.69951916 16.22157935 -13.40435951 18.12914044 -12 20 C-14.4375 19.3125 -14.4375 19.3125 -17 18 C-17.8125 15.375 -17.8125 15.375 -18 13 C-18.66 13 -19.32 13 -20 13 C-20.42154726 8.78452743 -20.42275746 5.98570648 -17.8125 2.625 C-12.73334179 -2.11554766 -6.55262701 -1.55486065 0 0 Z " fill="#344550" transform="translate(51,20)"/>
<path d="M0 0 C0.598125 0.226875 1.19625 0.45375 1.8125 0.6875 C1.19375 0.89375 0.575 1.1 -0.0625 1.3125 C-3.03403645 3.23525888 -3.31774659 5.35344527 -4.1875 8.6875 C-0.28721775 11.28768816 3.28684569 10.83835514 7.8125 10.6875 C7.5577486 9.37178397 7.28315859 8.05989624 7 6.75 C6.84917969 6.01910156 6.69835938 5.28820312 6.54296875 4.53515625 C6.30191406 3.92542969 6.06085937 3.31570312 5.8125 2.6875 C4.8225 2.3575 3.8325 2.0275 2.8125 1.6875 C3.8025 1.3575 4.7925 1.0275 5.8125 0.6875 C8.41846706 3.45634 9.72589205 5.05649922 10.25 8.875 C10.105625 9.803125 9.96125 10.73125 9.8125 11.6875 C6.14384759 14.13326827 4.14049657 13.92357254 -0.1875 13.6875 C-0.8475 13.3575 -1.5075 13.0275 -2.1875 12.6875 C-2.1875 12.0275 -2.1875 11.3675 -2.1875 10.6875 C-3.5075 10.3575 -4.8275 10.0275 -6.1875 9.6875 C-5.58414218 3.29190714 -5.58414218 3.29190714 -3.875 0.6875 C-2.1875 -0.3125 -2.1875 -0.3125 0 0 Z " fill="#7D9BAB" transform="translate(48.1875,23.3125)"/>
<path d="M0 0 C0.33 0 0.66 0 1 0 C1.125 7.75 1.125 7.75 0 10 C-5.77807024 10.2358396 -10.51324804 9.86783046 -16 8 C-16 7.34 -16 6.68 -16 6 C-15.08476563 5.93941406 -14.16953125 5.87882812 -13.2265625 5.81640625 C-11.44378906 5.69072266 -11.44378906 5.69072266 -9.625 5.5625 C-7.84996094 5.44068359 -7.84996094 5.44068359 -6.0390625 5.31640625 C-3.08481099 5.18915064 -3.08481099 5.18915064 -1 4 C-0.34786708 1.97536745 -0.34786708 1.97536745 0 0 Z " fill="#617A8E" transform="translate(58,31)"/>
<path d="M0 0 C4.01476736 6.02215104 4.28573751 11.99943109 4 19 C3.34 19 2.68 19 2 19 C1.67 20.98 1.34 22.96 1 25 C0.67 25 0.34 25 0 25 C0 16.75 0 8.5 0 0 Z " fill="#1074E0" transform="translate(8,30)"/>
<path d="M0 0 C0.49886719 0.26554687 0.99773438 0.53109375 1.51171875 0.8046875 C8.15856084 4.07440875 14.6824555 5.14044299 22 6 C22 6.66 22 7.32 22 8 C19 10 19 10 16 10 C16 9.34 16 8.68 16 8 C15.01 8.103125 14.02 8.20625 13 8.3125 C8.23474865 8.33195001 4.54183193 6.06670814 1 3 C0.67 2.01 0.34 1.02 0 0 Z " fill="#43586F" transform="translate(36,35)"/>
<path d="M0 0 C0.66 0 1.32 0 2 0 C3 3 3 3 3 5 C5.64 6.32 8.28 7.64 11 9 C6.80751457 11.09624272 6.19329002 11.36281926 2 10 C-0.3125 8.75 -0.3125 8.75 -2 7 C-2.375 4.4375 -2.375 4.4375 -2 2 C-1.34 1.34 -0.68 0.68 0 0 Z " fill="#E3EBF8" transform="translate(15,44)"/>
<path d="M0 0 C0.33 0 0.66 0 1 0 C1.12919255 7.4931677 1.12919255 7.4931677 0.1875 11.1875 C-0.34559408 14.26847624 -0.34559408 14.26847624 2.4375 16.875 C3.283125 17.57625 4.12875 18.2775 5 19 C3.25 19.75 3.25 19.75 1 20 C-1.25 18.25 -1.25 18.25 -3 16 C-3 15.01 -3 14.02 -3 13 C-3.99 12.34 -4.98 11.68 -6 11 C-5.01 10.67 -4.02 10.34 -3 10 C-2.67 8.35 -2.34 6.7 -2 5 C-1.34 5 -0.68 5 0 5 C0 3.35 0 1.7 0 0 Z " fill="#9CB3DB" transform="translate(19,31)"/>
<path d="M0 0 C0.33 0.99 0.66 1.98 1 3 C2.093125 2.484375 3.18625 1.96875 4.3125 1.4375 C8 0 8 0 11 1 C9.73461631 1.84158536 8.46246221 2.67299748 7.1875 3.5 C6.12595703 4.19609375 6.12595703 4.19609375 5.04296875 4.90625 C3 6 3 6 0 6 C-0.433125 7.1446875 -0.433125 7.1446875 -0.875 8.3125 C-2 11 -2 11 -4 14 C-4.88855164 11.00446363 -5.19605797 9.48360967 -4.00390625 6.54296875 C-3.52824219 5.76566406 -3.05257813 4.98835938 -2.5625 4.1875 C-1.85287109 3.00220703 -1.85287109 3.00220703 -1.12890625 1.79296875 C-0.75636719 1.20128906 -0.38382813 0.60960938 0 0 Z " fill="#E1ECF7" transform="translate(25,20)"/>
<path d="M0 0 C0.66 0 1.32 0 2 0 C1.8583467 2.87526069 1.71181468 5.75013536 1.5625 8.625 C1.50352539 9.83736328 1.50352539 9.83736328 1.44335938 11.07421875 C1.21203918 15.45150865 0.83079083 19.68547281 0 24 C-0.33 24 -0.66 24 -1 24 C-1.33 21.36 -1.66 18.72 -2 16 C-2.99 15.67 -3.98 15.34 -5 15 C-6.6875 11.4375 -6.6875 11.4375 -8 8 C-7.01 8.33 -6.02 8.66 -5 9 C-4.67 9.99 -4.34 10.98 -4 12 C-2.68 12.33 -1.36 12.66 0 13 C0 8.71 0 4.42 0 0 Z " fill="#3295E2" transform="translate(64,15)"/>
<path d="M0 0 C5.66710699 1.31793186 7.66437233 3.48709197 11 8 C10.46632813 7.7834375 9.93265625 7.566875 9.3828125 7.34375 C3.43492861 5.12101138 -1.68125637 4.64382865 -8 5 C-5 3 -5 3 -2.875 2.5 C-2.25625 2.335 -1.6375 2.17 -1 2 C-0.67 1.34 -0.34 0.68 0 0 Z " fill="#C3D2E6" transform="translate(45,15)"/>
<path d="M0 0 C0.33 0.66 0.66 1.32 1 2 C-2.52941176 7.79831933 -2.52941176 7.79831933 -5.1875 8.9375 C-5.785625 9.288125 -6.38375 9.63875 -7 10 C-7.81870185 13.56206661 -7.81870185 13.56206661 -8 17 C-8.33 17 -8.66 17 -9 17 C-10.07421875 11.04296875 -10.07421875 11.04296875 -10 9 C-8.75 7.4375 -8.75 7.4375 -7 6 C-6.39800781 5.47019531 -5.79601562 4.94039062 -5.17578125 4.39453125 C-4.56089844 3.87246094 -3.94601563 3.35039062 -3.3125 2.8125 C-2.68988281 2.28269531 -2.06726563 1.75289062 -1.42578125 1.20703125 C-0.95527344 0.80871094 -0.48476563 0.41039063 0 0 Z " fill="#1F87E4" transform="translate(19,21)"/>
<path d="M0 0 C1.32 0.33 2.64 0.66 4 1 C4.36923077 7.52307692 4.36923077 7.52307692 2.5 9.9375 C2.005 10.288125 1.51 10.63875 1 11 C-0.20272819 8.59454362 -0.10071472 7.05003047 -0.0625 4.375 C-0.05347656 3.55773438 -0.04445313 2.74046875 -0.03515625 1.8984375 C-0.02355469 1.27195313 -0.01195312 0.64546875 0 0 Z " fill="#BACDEA" transform="translate(11,31)"/>
<path d="M0 0 C1.485 0.99 1.485 0.99 3 2 C3.3984375 4.3125 3.3984375 4.3125 3.375 7 C3.38273437 7.886875 3.39046875 8.77375 3.3984375 9.6875 C3.26695313 10.450625 3.13546875 11.21375 3 12 C2.01 12.66 1.02 13.32 0 14 C0 9.38 0 4.76 0 0 Z " fill="#ACC0E0" transform="translate(60,29)"/>
<path d="M0 0 C1.65 0.33 3.3 0.66 5 1 C5.33 2.65 5.66 4.3 6 6 C3.69 5.67 1.38 5.34 -1 5 C-0.67 3.35 -0.34 1.7 0 0 Z " fill="#B6CCD5" transform="translate(47,24)"/>
<path d="M0 0 C2.62434747 0.36197896 3.82013689 0.82656057 5.75 2.6875 C7.33971755 5.62847746 7.29298241 7.70394793 7 11 C6 12 6 12 3.4375 12.0625 C2.633125 12.041875 1.82875 12.02125 1 12 C2.32 11.34 3.64 10.68 5 10 C4.7452486 8.68428397 4.47065859 7.37239624 4.1875 6.0625 C4.03667969 5.33160156 3.88585938 4.60070312 3.73046875 3.84765625 C3.48941406 3.23792969 3.24835937 2.62820312 3 2 C2.01 1.67 1.02 1.34 0 1 C0 0.67 0 0.34 0 0 Z " fill="#83A1B1" transform="translate(51,24)"/>
<path d="M0 0 C1.33333333 1.33333333 2.66666667 2.66666667 4 4 C4.9075 4.86625 5.815 5.7325 6.75 6.625 C9 9 9 9 9 11 C5.58217544 10.74682781 4.72255923 9.71625376 2.25 7.1875 C0 4 0 4 0 0 Z " fill="#33445A" transform="translate(27,37)"/>
<path d="M0 0 C0.66 0.33 1.32 0.66 2 1 C1.360625 1.825 0.72125 2.65 0.0625 3.5 C-2.46413081 7.23191406 -2.69360228 10.55723303 -3 15 C-3.66 15 -4.32 15 -5 15 C-5.42277492 8.86976372 -4.99795398 5.96715495 -1 1 C-0.67 0.67 -0.34 0.34 0 0 Z " fill="#11161B" transform="translate(29,24)"/>
<path d="M0 0 C4.95 0.33 9.9 0.66 15 1 C11.57905758 3.28062828 10.31812778 3.21925007 6.3125 3.125 C4.82169922 3.09792969 4.82169922 3.09792969 3.30078125 3.0703125 C2.54152344 3.04710937 1.78226563 3.02390625 1 3 C0.67 2.01 0.34 1.02 0 0 Z " fill="#9BADD9" transform="translate(30,56)"/>
<path d="M0 0 C0.8353125 0.556875 0.8353125 0.556875 1.6875 1.125 C1.6875 1.785 1.6875 2.445 1.6875 3.125 C2.6775 3.455 3.6675 3.785 4.6875 4.125 C3.06169034 4.01101335 1.43682843 3.88344341 -0.1875 3.75 C-1.09242187 3.68039063 -1.99734375 3.61078125 -2.9296875 3.5390625 C-5.3125 3.125 -5.3125 3.125 -7.3125 1.125 C-2.88173077 -1.09038462 -2.88173077 -1.09038462 0 0 Z " fill="#BACAEE" transform="translate(28.3125,53.875)"/>
<path d="M0 0 C0.66 0 1.32 0 2 0 C2 3.63 2 7.26 2 11 C1.34 11 0.68 11 0 11 C-2.21538462 5.70769231 -2.21538462 5.70769231 -1.125 2.125 C-0.75375 1.42375 -0.3825 0.7225 0 0 Z " fill="#0E65DC" transform="translate(60,43)"/>
<path d="M0 0 C1.33998047 0.06960937 1.33998047 0.06960937 2.70703125 0.140625 C3.60808594 0.17671875 4.50914063 0.2128125 5.4375 0.25 C6.46810547 0.31960937 6.46810547 0.31960937 7.51953125 0.390625 C5.02110383 1.67003948 2.56894419 2.77419522 -0.04296875 3.828125 C-2.94896613 5.1490329 -4.52022291 5.96914484 -6.48046875 8.390625 C-5.73871453 4.23680138 -4.50051414 0.70874238 0 0 Z " fill="#547480" transform="translate(41.48046875,20.609375)"/>
<path d="M0 0 C3 1 3 1 4.6875 3.375 C6.47304056 8.30649297 6.24928545 12.81116953 6 18 C5.67 18 5.34 18 5 18 C4.97421875 17.34773438 4.9484375 16.69546875 4.921875 16.0234375 C4.53428803 10.05107458 3.65605129 6.71748554 0 2 C0 1.34 0 0.68 0 0 Z " fill="#1F2D45" transform="translate(54,23)"/>
<path d="M0 0 C0.66 0 1.32 0 2 0 C2.33 0.99 2.66 1.98 3 3 C2.67 3.66 2.34 4.32 2 5 C1.34 5 0.68 5 0 5 C0.33 6.32 0.66 7.64 1 9 C0.01 8.34 -0.98 7.68 -2 7 C-2.3125 4.5 -2.3125 4.5 -2 2 C-1.34 1.34 -0.68 0.68 0 0 Z " fill="#C6D6F2" transform="translate(15,44)"/>
<path d="M0 0 C-1.305239 2.61047801 -2.35826574 2.68066423 -5.0625 3.625 C-5.79597656 3.88539062 -6.52945312 4.14578125 -7.28515625 4.4140625 C-7.85105469 4.60742188 -8.41695312 4.80078125 -9 5 C-9 4.01 -9 3.02 -9 2 C-3.375 -1.125 -3.375 -1.125 0 0 Z " fill="#D5E6F6" transform="translate(35,15)"/>
<path d="M0 0 C-2.64315808 2.64997034 -3.85115341 2.9969914 -7.671875 3.07421875 C-9.03272226 2.96191582 -10.39224897 2.832515 -11.75 2.6875 C-12.44738281 2.62626953 -13.14476562 2.56503906 -13.86328125 2.50195312 C-15.57689681 2.34937092 -17.2886995 2.17666411 -19 2 C-19 1.67 -19 1.34 -19 1 C-16.77100213 0.83109082 -14.54179338 0.66496313 -12.3125 0.5 C-10.45044922 0.36078125 -10.45044922 0.36078125 -8.55078125 0.21875 C-5.68500671 0.04220063 -2.86900043 -0.04388528 0 0 Z " fill="#054AD3" transform="translate(55,59)"/>
<path d="M0 0 C-1.26538369 0.84158536 -2.53753779 1.67299748 -3.8125 2.5 C-4.87404297 3.19609375 -4.87404297 3.19609375 -5.95703125 3.90625 C-8 5 -8 5 -11 5 C-10.375 3.125 -10.375 3.125 -9 1 C-5.36656983 -0.62344752 -3.82788944 -1.27596315 0 0 Z " fill="#C8D3E6" transform="translate(36,21)"/>
<path d="M0 0 C2.4375 1.1875 2.4375 1.1875 3.4375 3.1875 C1.6875 3.9375 1.6875 3.9375 -0.5625 4.1875 C-2.8125 2.25 -2.8125 2.25 -4.5625 0.1875 C-2.5625 -0.8125 -2.5625 -0.8125 0 0 Z " fill="#93A7D2" transform="translate(20.5625,46.8125)"/>
<path d="M0 0 C1.32 0 2.64 0 4 0 C4 0.66 4 1.32 4 2 C3.34 2 2.68 2 2 2 C2 3.98 2 5.96 2 8 C0.68 7.67 -0.64 7.34 -2 7 C-1.34 4.69 -0.68 2.38 0 0 Z " fill="#E0EAF6" transform="translate(15,34)"/>
<path d="M0 0 C0.33 0.99 0.66 1.98 1 3 C-0.28965176 4.37562854 -1.62689293 5.70766393 -3 7 C-3.66 7 -4.32 7 -5 7 C-4.67 5.35 -4.34 3.7 -4 2 C-3.01 2 -2.02 2 -1 2 C-0.67 1.34 -0.34 0.68 0 0 Z " fill="#283751" transform="translate(57,44)"/>
<path d="M0 0 C2.6855594 2.6855594 3.06049974 5.37621328 4 9 C2.0625 8.25 2.0625 8.25 0 7 C-1.23843794 4.04680182 -1.04187157 3.12561472 0 0 Z " fill="#BDCEEF" transform="translate(19,39)"/>
<path d="M0 0 C1.98 0.99 1.98 0.99 4 2 C3.34 2.66 2.68 3.32 2 4 C1.83322718 7.58343976 1.83322718 7.58343976 2 11 C1.34 10.67 0.68 10.34 0 10 C0 6.7 0 3.4 0 0 Z " fill="#0F60D9" transform="translate(12,42)"/>
<path d="M0 0 C0.99 0.33 1.98 0.66 3 1 C2.01 2.98 1.02 4.96 0 7 C-0.99 6.34 -1.98 5.68 -3 5 C-2.01 3.35 -1.02 1.7 0 0 Z " fill="#B6CDED" transform="translate(19,23)"/>
<path d="M0 0 C2 3 2 3 2 7 C0.68 6.67 -0.64 6.34 -2 6 C-1.34 4.02 -0.68 2.04 0 0 Z " fill="#88A6B6" transform="translate(45,26)"/>
</svg>
